<svg width="226" height="102" viewBox="0 0 226 102" fill="none" xmlns="http://www.w3.org/2000/svg">
<path d="M1.50851 101.581C0.675644 101.491 0.0727692 100.742 0.174347 99.9106C1.20844 91.4447 3.19119 83.1218 6.0853 75.099C6.36958 74.3109 7.24529 73.9144 8.02951 74.2092L11.5794 75.5435C12.3636 75.8383 12.7593 76.7126 12.4757 77.501C9.78226 84.9875 7.93266 92.7512 6.96129 100.648C6.85899 101.479 6.11159 102.081 5.2787 101.991L1.50851 101.581Z" fill="#6AA76E"/>
<path d="M27.3667 41.2497C26.7268 40.709 26.6457 39.7511 27.1949 39.1185C32.7863 32.6781 39.0842 26.8869 45.9699 21.8541C46.6463 21.3597 47.5939 21.5207 48.0792 22.2036L50.2761 25.2948C50.7614 25.9777 50.6005 26.9239 49.9246 27.4188C43.5052 32.1193 37.6304 37.5214 32.4093 43.525C31.8595 44.1571 30.9032 44.2383 30.2633 43.6975L27.3667 41.2497Z" fill="#A5A849"/>
<path d="M82.5412 5.69218C82.3131 4.88605 82.7814 4.0466 83.5905 3.82925C91.8274 1.61663 100.287 0.337242 108.81 0.0151978C109.647 -0.0164337 110.343 0.64698 110.363 1.48452L110.456 5.27574C110.476 6.11328 109.814 6.8077 108.977 6.84005C101.026 7.14724 93.135 8.34068 85.4494 10.3982C84.6401 10.6149 83.8019 10.1474 83.5738 9.34126L82.5412 5.69218Z" fill="#E8A91B"/>
<path d="M148.166 7.06683C148.428 6.27097 149.286 5.83692 150.078 6.10918C158.144 8.88084 165.873 12.5507 173.119 17.0496C173.83 17.4915 174.036 18.4305 173.585 19.1363L171.542 22.3312C171.09 23.037 170.153 23.2423 169.441 22.8009C162.678 18.6098 155.468 15.1865 147.946 12.5945C147.154 12.3216 146.72 11.4653 146.982 10.6695L148.166 7.06683Z" fill="#C0641C"/>
<path d="M201.804 44.9036C202.466 44.3902 203.419 44.5099 203.924 45.1787C209.061 51.9869 213.416 59.3512 216.907 67.1327C217.25 67.897 216.896 68.7905 216.127 69.1233L212.647 70.6294C211.878 70.9621 210.986 70.6081 210.642 69.844C207.379 62.5877 203.316 55.7181 198.53 49.3629C198.026 48.6937 198.145 47.7415 198.807 47.228L201.804 44.9036Z" fill="#A5321D"/>
<path d="M9.92932 69.4833C9.15927 69.1533 8.80164 68.261 9.14191 67.4954C12.606 59.7017 16.9355 52.3223 22.0488 45.4961C22.5511 44.8256 23.5045 44.7025 24.1682 45.2137L27.1729 47.5276C27.8366 48.0387 27.9594 48.9906 27.4577 49.6615C22.6931 56.0334 18.6544 62.9171 15.4167 70.1849C15.0758 70.9501 14.185 71.3073 13.415 70.9773L9.92932 69.4833Z" fill="#87A65B"/>
<path d="M52.2969 19.348C51.8431 18.6438 52.0455 17.7041 52.7557 17.2597C59.9858 12.7355 67.7017 9.03867 75.7579 6.23888C76.5493 5.96386 77.4085 6.39491 77.6729 7.18986L78.87 10.7883C79.1344 11.5833 78.704 12.441 77.9128 12.7167C70.3997 15.335 63.2021 18.7835 56.4539 22.9981C55.7433 23.4419 54.8051 23.2399 54.3513 22.5357L52.2969 19.348Z" fill="#C6A832"/>
<path d="M115.457 1.47563C115.474 0.638031 116.167 -0.0278168 117.005 0.000892639C125.529 0.293182 133.993 1.54305 142.237 3.7269C143.047 3.94142 143.518 4.77923 143.293 5.58615L142.273 9.23881C142.048 10.0457 141.211 10.5161 140.401 10.3023C132.708 8.27161 124.813 7.10572 116.862 6.82629C116.024 6.79687 115.36 6.10476 115.377 5.26716L115.457 1.47563Z" fill="#D1831C"/>
<path d="M177.812 21.9772C178.295 21.2926 179.242 21.1283 179.92 21.6203C186.824 26.6291 193.142 32.3982 198.755 38.819C199.307 39.4497 199.229 40.4078 198.591 40.9507L195.703 43.4087C195.065 43.9516 194.109 43.8738 193.557 43.2436C188.315 37.2584 182.421 31.8768 175.985 27.1988C175.308 26.7062 175.143 25.7607 175.626 25.0761L177.812 21.9772Z" fill="#B34A1C"/>
<path d="M218.043 73.8427C218.827 73.5452 219.704 73.9386 219.991 74.7256C222.913 82.7383 224.925 91.0541 225.988 99.5164C226.093 100.348 225.492 101.098 224.66 101.192L220.891 101.615C220.059 101.708 219.309 101.109 219.204 100.277C218.205 92.3841 216.328 84.6269 213.609 77.1499C213.322 76.3626 213.715 75.4869 214.498 75.1894L218.043 73.8427Z" fill="#97181C"/>
<rect x="179" y="23" width="14" height="14" rx="7" fill="#ECDA24"/>
<path d="M187.11 27L184.529 28.9182C184.363 29.0416 184.128 28.923 184.128 28.7163V27H183V29.3446C183 29.7557 183.227 30.1416 183.598 30.319C183.746 30.39 183.902 30.425 184.055 30.425C184.276 30.425 184.494 30.3528 184.68 30.2117L189 27.0003H187.11V27Z" fill="#194B5B"/>
<path d="M184.89 32.4199L187.471 30.5017C187.637 30.3783 187.872 30.4969 187.872 30.7037V32.4199H189V30.0754C189 29.664 188.774 29.2783 188.403 29.101C188.254 29.03 188.099 28.9952 187.945 28.9952C187.724 28.9952 187.507 29.0674 187.32 29.2088L183 32.4199H184.89Z" fill="#194B5B"/>
<rect x="179" y="23" width="14" height="14" rx="7" stroke="#194B5B" stroke-width="2"/>
</svg>
