<svg width="56" height="56" viewBox="0 0 56 56" fill="none" xmlns="http://www.w3.org/2000/svg">
<path d="M30.1 24.5C28.7 24.15 27.3 23.45 26.25 22.4C25.2 22.05 24.85 21 24.85 20.3C24.85 19.6 25.2 18.55 25.9 18.2C26.95 17.5 28 16.8 29.05 17.15C31.15 17.15 32.9 18.2 33.95 19.6L37.1 15.4C36.05 14.35 35 13.65 33.95 12.95C32.9 12.25 31.5 11.9 30.1 11.9V7H25.9V11.9C24.15 12.25 22.4 13.3 21 14.7C19.6 16.45 18.55 18.55 18.9 20.65C18.9 22.75 19.6 24.85 21 26.25C22.75 28 25.2 29.05 27.3 30.1C28.35 30.45 29.75 31.15 30.8 31.85C31.5 32.55 31.85 33.6 31.85 34.65C31.85 35.7 31.5 36.75 30.8 37.8C29.75 38.85 28.35 39.2 27.3 39.2C25.9 39.2 24.15 38.85 23.1 37.8C22.05 37.1 21 36.05 20.3 35L16.8 38.85C17.85 40.25 18.9 41.3 20.3 42.35C22.05 43.4 24.15 44.45 26.25 44.45V49H30.1V43.75C32.2 43.4 33.95 42.35 35.35 40.95C37.1 39.2 38.15 36.4 38.15 33.95C38.15 31.85 37.45 29.4 35.7 28C33.95 26.25 32.2 25.2 30.1 24.5ZM28 0C12.6 0 0 12.6 0 28C0 43.4 12.6 56 28 56C43.4 56 56 43.4 56 28C56 12.6 43.4 0 28 0ZM28 52.15C14.7 52.15 3.85 41.3 3.85 28C3.85 14.7 14.7 3.85 28 3.85C41.3 3.85 52.15 14.7 52.15 28C52.15 41.3 41.3 52.15 28 52.15Z" fill="#194B5B"/>
</svg>
