<svg width="124" height="40" viewBox="0 0 124 40" fill="none" xmlns="http://www.w3.org/2000/svg">
<g clip-path="url(#clip0_189_1988)">
<rect width="124" height="40" rx="2" fill="#FBFBFB"/>
<rect width="124" height="12" fill="#0433A6"/>
<path d="M52.7227 8V4.36364H54.0544C54.3125 4.36364 54.5261 4.40625 54.6954 4.49148C54.8647 4.57552 54.9913 4.68975 55.0754 4.83416C55.1594 4.97739 55.2014 5.13897 55.2014 5.31889C55.2014 5.47041 55.1736 5.59825 55.118 5.70241C55.0624 5.8054 54.9878 5.88826 54.8943 5.95099C54.8019 6.01255 54.7001 6.05753 54.5889 6.08594V6.12145C54.7096 6.12737 54.8274 6.16643 54.9422 6.23864C55.0582 6.30966 55.1541 6.41087 55.2298 6.54226C55.3056 6.67365 55.3435 6.83345 55.3435 7.02166C55.3435 7.2075 55.2997 7.37441 55.2121 7.52237C55.1257 7.66915 54.9919 7.78575 54.8108 7.87216C54.6297 7.95739 54.3983 8 54.1166 8H52.7227ZM53.2714 7.52947H54.0633C54.3261 7.52947 54.5143 7.47857 54.6279 7.37678C54.7416 7.27498 54.7984 7.14773 54.7984 6.99503C54.7984 6.88021 54.7694 6.77486 54.7114 6.67898C54.6534 6.5831 54.5705 6.50675 54.4628 6.44993C54.3563 6.39311 54.2296 6.3647 54.0828 6.3647H53.2714V7.52947ZM53.2714 5.93679H54.0065C54.1296 5.93679 54.2403 5.91312 54.3385 5.86577C54.4379 5.81842 54.5167 5.75213 54.5747 5.6669C54.6338 5.58049 54.6634 5.47869 54.6634 5.36151C54.6634 5.21117 54.6108 5.08511 54.5054 4.98331C54.4001 4.88151 54.2385 4.83061 54.0207 4.83061H53.2714V5.93679ZM56.5942 8V4.36364H57.8904C58.1721 4.36364 58.4059 4.41217 58.5917 4.50923C58.7788 4.6063 58.9184 4.74065 59.0108 4.91229C59.1031 5.08274 59.1493 5.27983 59.1493 5.50355C59.1493 5.72609 59.1025 5.92199 59.009 6.09126C58.9167 6.25935 58.777 6.39015 58.59 6.48366C58.4041 6.57718 58.1703 6.62393 57.8886 6.62393H56.9067V6.15163H57.8389C58.0165 6.15163 58.1609 6.12618 58.2721 6.07528C58.3846 6.02438 58.4669 5.9504 58.5189 5.85334C58.571 5.75627 58.5971 5.63968 58.5971 5.50355C58.5971 5.36624 58.5704 5.24728 58.5172 5.14666C58.4651 5.04605 58.3828 4.96911 58.2704 4.91584C58.1591 4.86139 58.0129 4.83416 57.8318 4.83416H57.1429V8H56.5942ZM58.3893 6.35938L59.2878 8H58.6628L57.7821 6.35938H58.3893ZM60.7241 8H60.1417L61.4503 4.36364H62.0841L63.3927 8H62.8104L61.7823 5.02415H61.7539L60.7241 8ZM60.8217 6.57599H62.7109V7.03764H60.8217V6.57599ZM66.4719 5.31889C66.4529 5.1508 66.3748 5.0206 66.2375 4.92827C66.1002 4.83475 65.9274 4.788 65.719 4.788C65.5699 4.788 65.4409 4.81167 65.332 4.85902C65.2231 4.90518 65.1384 4.96911 65.0781 5.05078C65.0189 5.13127 64.9893 5.22301 64.9893 5.32599C64.9893 5.41241 65.0094 5.48698 65.0496 5.54972C65.0911 5.61245 65.1449 5.66513 65.2112 5.70774C65.2787 5.74917 65.3509 5.78409 65.4278 5.8125C65.5048 5.83973 65.5788 5.86222 65.6498 5.87997L66.0049 5.9723C66.1209 6.00071 66.2399 6.03918 66.3618 6.08771C66.4837 6.13625 66.5968 6.20017 66.7009 6.27947C66.8051 6.35878 66.8891 6.45703 66.9531 6.57422C67.0182 6.69141 67.0507 6.83168 67.0507 6.99503C67.0507 7.20099 66.9974 7.38388 66.8909 7.54368C66.7856 7.70348 66.6323 7.82955 66.431 7.92188C66.231 8.0142 65.9889 8.06037 65.7048 8.06037C65.4326 8.06037 65.197 8.01716 64.9982 7.93075C64.7993 7.84434 64.6436 7.72183 64.5312 7.56321C64.4187 7.40341 64.3566 7.21402 64.3447 6.99503H64.8952C64.9058 7.12642 64.9484 7.23591 65.023 7.32351C65.0988 7.40992 65.1952 7.47443 65.3124 7.51705C65.4308 7.55848 65.5604 7.57919 65.7013 7.57919C65.8563 7.57919 65.9942 7.55492 66.115 7.50639C66.2369 7.45668 66.3328 7.38802 66.4026 7.30043C66.4725 7.21165 66.5074 7.10807 66.5074 6.9897C66.5074 6.88198 66.4766 6.7938 66.4151 6.72514C66.3547 6.65649 66.2724 6.59967 66.1683 6.55469C66.0653 6.50971 65.9487 6.47005 65.8185 6.43572L65.3888 6.31854C65.0976 6.23923 64.8668 6.12263 64.6963 5.96875C64.527 5.81487 64.4424 5.61127 64.4424 5.35795C64.4424 5.14844 64.4992 4.96555 64.6129 4.8093C64.7265 4.65305 64.8804 4.53172 65.0745 4.44531C65.2686 4.35772 65.4876 4.31392 65.7315 4.31392C65.9777 4.31392 66.1949 4.35713 66.3831 4.44354C66.5725 4.52995 66.7216 4.64891 66.8305 4.80043C66.9394 4.95076 66.9963 5.12358 67.001 5.31889H66.4719ZM68.855 4.36364V8H68.3063V4.36364H68.855ZM70.254 8V4.36364H70.8026V7.5277H72.4504V8H70.254Z" fill="white"/>
<g clip-path="url(#clip1_189_1988)">
<path fill-rule="evenodd" clip-rule="evenodd" d="M115.876 6.84411L115.891 6.90046L115.839 6.86936L115.788 6.90046L115.803 6.84411L115.756 6.80698L115.817 6.80327L115.839 6.74921L115.862 6.80327L115.923 6.80698L115.876 6.84411Z" fill="white"/>
<path fill-rule="evenodd" clip-rule="evenodd" d="M115.385 6.39155L115.4 6.44794L115.349 6.4168L115.297 6.44794L115.312 6.39155L115.265 6.35446L115.326 6.35074L115.349 6.29669L115.371 6.35074L115.432 6.35446L115.385 6.39155Z" fill="white"/>
<path fill-rule="evenodd" clip-rule="evenodd" d="M115.255 5.76879L115.27 5.82514L115.219 5.79403L115.167 5.82514L115.182 5.76879L115.135 5.73167L115.196 5.72795L115.219 5.67389L115.241 5.72795L115.302 5.73167L115.255 5.76879Z" fill="white"/>
<path fill-rule="evenodd" clip-rule="evenodd" d="M121 3V9H112V3H121Z" fill="#009C37"/>
<path d="M120.235 6.00001L116.5 8.27143L112.765 6.00001L116.5 3.72858L120.235 6.00001Z" fill="#FEE000"/>
<path d="M116.5 4.5C117.37 4.5 118.075 5.17171 118.075 6.00001C118.075 6.82831 117.37 7.5 116.5 7.5C115.63 7.5 114.925 6.82829 114.925 6.00001C114.925 5.17172 115.63 4.5 116.5 4.5Z" fill="#002277"/>
<path fill-rule="evenodd" clip-rule="evenodd" d="M117.018 5.49096L117.033 5.54731L116.981 5.51619L116.93 5.54731L116.945 5.49096L116.898 5.45384L116.959 5.45012L116.981 5.39606L117.004 5.45012L117.065 5.45384L117.018 5.49096Z" fill="white"/>
<path fill-rule="evenodd" clip-rule="evenodd" d="M116.895 5.91926L116.906 5.95979L116.869 5.93742L116.832 5.95979L116.843 5.91926L116.809 5.89256L116.853 5.8899L116.869 5.85101L116.885 5.8899L116.929 5.89256L116.895 5.91926Z" fill="white"/>
<path fill-rule="evenodd" clip-rule="evenodd" d="M115.255 5.76879L115.27 5.82514L115.219 5.79403L115.167 5.82514L115.182 5.76879L115.135 5.73167L115.196 5.72795L115.219 5.67389L115.241 5.72795L115.302 5.73167L115.255 5.76879Z" fill="white"/>
<path fill-rule="evenodd" clip-rule="evenodd" d="M115.916 6.07319L115.929 6.12074L115.885 6.09449L115.842 6.12074L115.855 6.07319L115.815 6.04183L115.866 6.03872L115.885 5.9931L115.904 6.03872L115.956 6.04183L115.916 6.07319Z" fill="white"/>
<path fill-rule="evenodd" clip-rule="evenodd" d="M115.512 6.28739L115.52 6.3177L115.493 6.30096L115.465 6.3177L115.473 6.28739L115.448 6.26741L115.481 6.26542L115.493 6.23633L115.505 6.26542L115.538 6.26741L115.512 6.28739Z" fill="white"/>
<path fill-rule="evenodd" clip-rule="evenodd" d="M115.385 6.39159L115.4 6.44794L115.349 6.41683L115.297 6.44794L115.312 6.39159L115.265 6.35448L115.326 6.35076L115.349 6.29669L115.371 6.35076L115.432 6.35448L115.385 6.39159Z" fill="white"/>
<path fill-rule="evenodd" clip-rule="evenodd" d="M115.215 6.51907L115.227 6.56662L115.184 6.54037L115.14 6.56662L115.153 6.51907L115.113 6.48775L115.165 6.48461L115.184 6.43896L115.203 6.48461L115.254 6.48775L115.215 6.51907Z" fill="white"/>
<path fill-rule="evenodd" clip-rule="evenodd" d="M115.698 6.53071L115.711 6.57829L115.667 6.55201L115.624 6.57829L115.636 6.53071L115.597 6.49938L115.648 6.49625L115.667 6.45062L115.686 6.49625L115.738 6.49938L115.698 6.53071Z" fill="white"/>
<path fill-rule="evenodd" clip-rule="evenodd" d="M115.636 6.68711L115.647 6.72765L115.61 6.70526L115.573 6.72765L115.584 6.68711L115.55 6.66041L115.594 6.65775L115.61 6.61884L115.626 6.65775L115.67 6.66041L115.636 6.68711Z" fill="white"/>
<path fill-rule="evenodd" clip-rule="evenodd" d="M115.876 6.84411L115.891 6.90046L115.839 6.86934L115.788 6.90046L115.803 6.84411L115.756 6.80699L115.817 6.80327L115.839 6.74921L115.862 6.80327L115.923 6.80699L115.876 6.84411Z" fill="white"/>
<path fill-rule="evenodd" clip-rule="evenodd" d="M116.522 7.19711L116.527 7.21876L116.508 7.2068L116.488 7.21876L116.494 7.19711L116.476 7.18287L116.499 7.18142L116.508 7.16064L116.516 7.18142L116.54 7.18287L116.522 7.19711Z" fill="white"/>
<path fill-rule="evenodd" clip-rule="evenodd" d="M116.543 6.27467L116.555 6.32223L116.512 6.29597L116.468 6.32223L116.481 6.27467L116.441 6.24334L116.493 6.24019L116.512 6.19458L116.531 6.24019L116.582 6.24334L116.543 6.27467Z" fill="white"/>
<path fill-rule="evenodd" clip-rule="evenodd" d="M116.687 6.40301L116.699 6.45057L116.656 6.42429L116.612 6.45057L116.625 6.40301L116.585 6.3717L116.637 6.36855L116.656 6.32294L116.675 6.36855L116.726 6.3717L116.687 6.40301Z" fill="white"/>
<path fill-rule="evenodd" clip-rule="evenodd" d="M116.428 6.49613L116.436 6.52644L116.409 6.50972L116.381 6.52644L116.389 6.49613L116.364 6.47617L116.397 6.47417L116.409 6.44507L116.421 6.47417L116.454 6.47617L116.428 6.49613Z" fill="white"/>
<path fill-rule="evenodd" clip-rule="evenodd" d="M116.32 6.41874L116.331 6.45928L116.293 6.43688L116.256 6.45928L116.267 6.41874L116.233 6.39201L116.277 6.38937L116.293 6.35046L116.31 6.38937L116.354 6.39201L116.32 6.41874Z" fill="white"/>
<path fill-rule="evenodd" clip-rule="evenodd" d="M116.539 6.71416L116.555 6.77051L116.503 6.7394L116.451 6.77051L116.466 6.71416L116.419 6.67705L116.48 6.67333L116.503 6.61926L116.525 6.67333L116.586 6.67705L116.539 6.71416Z" fill="white"/>
<path fill-rule="evenodd" clip-rule="evenodd" d="M116.854 6.86326L116.865 6.90383L116.828 6.88143L116.791 6.90383L116.801 6.86326L116.768 6.83659L116.811 6.83392L116.828 6.79504L116.844 6.83392L116.888 6.83659L116.854 6.86326Z" fill="white"/>
<path fill-rule="evenodd" clip-rule="evenodd" d="M116.987 7.04986L117 7.09744L116.957 7.07116L116.913 7.09744L116.926 7.04986L116.886 7.01856L116.938 7.0154L116.957 6.96979L116.976 7.0154L117.027 7.01856L116.987 7.04986Z" fill="white"/>
<path fill-rule="evenodd" clip-rule="evenodd" d="M117.127 6.90103L117.138 6.94155L117.101 6.91918L117.063 6.94155L117.074 6.90103L117.041 6.87434L117.084 6.87166L117.101 6.83276L117.117 6.87166L117.161 6.87434L117.127 6.90103Z" fill="white"/>
<path fill-rule="evenodd" clip-rule="evenodd" d="M117.314 7.16938L117.325 7.20993L117.288 7.18754L117.251 7.20993L117.262 7.16938L117.228 7.1427L117.272 7.14002L117.288 7.10114L117.304 7.14002L117.348 7.1427L117.314 7.16938Z" fill="white"/>
<path fill-rule="evenodd" clip-rule="evenodd" d="M117.321 7.01351L117.334 7.06106L117.29 7.0348L117.247 7.06106L117.259 7.01351L117.22 6.98217L117.271 6.97905L117.29 6.93341L117.309 6.97905L117.361 6.98217L117.321 7.01351Z" fill="white"/>
<path fill-rule="evenodd" clip-rule="evenodd" d="M117.312 6.86625L117.323 6.90677L117.286 6.88441L117.249 6.90677L117.259 6.86625L117.226 6.83954L117.269 6.83686L117.286 6.79797L117.302 6.83686L117.346 6.83954L117.312 6.86625Z" fill="white"/>
<path fill-rule="evenodd" clip-rule="evenodd" d="M117.468 6.86767L117.479 6.90823L117.441 6.88584L117.404 6.90823L117.415 6.86767L117.381 6.841L117.425 6.83832L117.441 6.79944L117.458 6.83832L117.501 6.841L117.468 6.86767Z" fill="white"/>
<path fill-rule="evenodd" clip-rule="evenodd" d="M117.619 6.80581L117.632 6.85333L117.589 6.8271L117.545 6.85333L117.558 6.80581L117.518 6.77445L117.57 6.77134L117.589 6.72571L117.608 6.77134L117.659 6.77445L117.619 6.80581Z" fill="white"/>
<path fill-rule="evenodd" clip-rule="evenodd" d="M117.694 6.68677L117.706 6.73431L117.663 6.70808L117.619 6.73431L117.632 6.68677L117.592 6.65543L117.644 6.6523L117.663 6.60669L117.682 6.6523L117.733 6.65543L117.694 6.68677Z" fill="white"/>
<path fill-rule="evenodd" clip-rule="evenodd" d="M117.637 6.54113L117.652 6.59748L117.601 6.56636L117.549 6.59748L117.564 6.54113L117.517 6.50401L117.578 6.50029L117.601 6.44623L117.623 6.50029L117.684 6.50401L117.637 6.54113Z" fill="white"/>
<path fill-rule="evenodd" clip-rule="evenodd" d="M117.857 6.55093L117.868 6.59146L117.831 6.56909L117.794 6.59146L117.805 6.55093L117.771 6.52426L117.815 6.52155L117.831 6.48267L117.847 6.52155L117.891 6.52426L117.857 6.55093Z" fill="white"/>
<path fill-rule="evenodd" clip-rule="evenodd" d="M115.559 5.53761C115.365 5.53761 115.175 5.55165 114.989 5.57873C115.012 5.50457 115.04 5.4328 115.074 5.36383C115.233 5.34531 115.395 5.33557 115.559 5.33557C116.506 5.33557 117.378 5.65272 118.062 6.18085C118.052 6.25768 118.036 6.33278 118.014 6.40561C117.354 5.86506 116.496 5.53761 115.559 5.53761L115.559 5.53761Z" fill="white"/>
<path fill-rule="evenodd" clip-rule="evenodd" d="M115.154 5.45982C115.155 5.47447 115.16 5.48557 115.167 5.49313C115.175 5.50069 115.185 5.50394 115.197 5.50294C115.209 5.50192 115.219 5.49709 115.225 5.48841C115.231 5.47975 115.233 5.46807 115.232 5.45342C115.231 5.4388 115.226 5.42771 115.219 5.42016C115.211 5.4126 115.201 5.40935 115.189 5.41036C115.176 5.41138 115.167 5.4162 115.161 5.42485C115.155 5.43347 115.152 5.44512 115.154 5.45982L115.154 5.45982ZM115.124 5.46221C115.123 5.44071 115.127 5.42315 115.138 5.40953C115.149 5.39591 115.165 5.38821 115.186 5.38652C115.207 5.38481 115.224 5.38977 115.238 5.40141C115.251 5.41306 115.259 5.4296 115.261 5.45103C115.263 5.47249 115.258 5.49007 115.247 5.50372C115.236 5.51738 115.22 5.52507 115.199 5.52677C115.178 5.52847 115.161 5.52352 115.148 5.51187C115.134 5.50023 115.126 5.48368 115.124 5.46221H115.124ZM115.353 5.43734L115.387 5.43626C115.394 5.43602 115.399 5.43442 115.403 5.43149C115.406 5.42852 115.408 5.424 115.407 5.41789C115.407 5.4121 115.405 5.40776 115.402 5.40486C115.398 5.40197 115.393 5.40064 115.387 5.40085L115.351 5.40197L115.353 5.43734H115.353ZM115.326 5.51339L115.322 5.37985L115.39 5.37769C115.405 5.37719 115.417 5.37996 115.424 5.38595C115.432 5.39193 115.436 5.40135 115.436 5.41416C115.436 5.42229 115.435 5.42917 115.431 5.43472C115.428 5.44029 115.423 5.44416 115.416 5.44636C115.423 5.44824 115.427 5.45123 115.43 5.45537C115.432 5.45953 115.434 5.46608 115.435 5.47501L115.436 5.49075C115.436 5.49088 115.436 5.49107 115.436 5.49131C115.436 5.49926 115.438 5.50406 115.442 5.50561L115.442 5.50971L115.41 5.51073C115.409 5.50887 115.409 5.5066 115.408 5.50386C115.407 5.50112 115.407 5.49786 115.407 5.49405L115.406 5.48002C115.405 5.47176 115.403 5.46621 115.4 5.46343C115.397 5.46061 115.392 5.45934 115.384 5.45958L115.354 5.46055L115.355 5.51247L115.327 5.51339L115.326 5.51339ZM115.534 5.48337L115.557 5.4838C115.57 5.48404 115.58 5.48088 115.586 5.4743C115.592 5.46776 115.595 5.45695 115.596 5.44196C115.596 5.42704 115.593 5.416 115.588 5.4089C115.582 5.40176 115.574 5.39812 115.562 5.39789L115.535 5.39741L115.534 5.48337V5.48337ZM115.505 5.50699L115.507 5.37341L115.562 5.3744C115.584 5.37479 115.6 5.38063 115.61 5.39186C115.62 5.40311 115.625 5.41998 115.625 5.44248C115.625 5.45468 115.623 5.46541 115.619 5.47465C115.614 5.48389 115.609 5.49128 115.601 5.49682C115.595 5.50094 115.589 5.50388 115.582 5.5056C115.575 5.50729 115.565 5.50805 115.552 5.50781L115.505 5.50699L115.505 5.50699ZM115.683 5.50997L115.69 5.37657L115.792 5.3818L115.791 5.405L115.717 5.40123L115.716 5.42967L115.783 5.43312L115.782 5.45593L115.714 5.45249L115.713 5.48681L115.789 5.49075L115.788 5.5154L115.683 5.50997L115.683 5.50997ZM115.848 5.51931L115.863 5.38648L115.905 5.39079L115.922 5.49471L115.96 5.39638L116.003 5.40072L115.988 5.53357L115.961 5.53083L115.973 5.4237L115.933 5.52796L115.903 5.52497L115.887 5.41492L115.875 5.52205L115.848 5.51931L115.848 5.51931ZM116.22 5.56488L116.249 5.43425L116.349 5.45457L116.343 5.47728L116.272 5.46265L116.265 5.4905L116.331 5.50388L116.326 5.52624L116.26 5.51284L116.253 5.54645L116.328 5.56178L116.323 5.58593L116.22 5.56488L116.22 5.56488ZM116.591 5.57314L116.618 5.58006C116.625 5.58194 116.631 5.58181 116.635 5.57973C116.639 5.57761 116.642 5.57332 116.644 5.56677C116.646 5.56065 116.645 5.5556 116.643 5.55159C116.641 5.54762 116.636 5.54481 116.63 5.54314L116.601 5.53586L116.591 5.57314L116.591 5.57314ZM116.584 5.59646L116.571 5.64235L116.543 5.6352L116.58 5.5062L116.64 5.52167C116.654 5.52531 116.664 5.53162 116.669 5.54052C116.675 5.54943 116.675 5.56068 116.672 5.57432C116.668 5.58762 116.661 5.59695 116.652 5.60232C116.643 5.60768 116.632 5.60867 116.618 5.60526L116.584 5.59646H116.584ZM116.753 5.61747L116.785 5.62696C116.792 5.62902 116.798 5.62917 116.802 5.62741C116.806 5.62566 116.809 5.62187 116.811 5.61601C116.813 5.61048 116.813 5.60581 116.81 5.602C116.808 5.5982 116.804 5.59536 116.797 5.5935L116.764 5.58363L116.753 5.61747L116.753 5.61747ZM116.702 5.68124L116.743 5.55354L116.808 5.57258C116.823 5.57685 116.833 5.58301 116.838 5.59102C116.843 5.59905 116.843 5.60918 116.84 5.62144C116.837 5.62923 116.833 5.63524 116.828 5.63943C116.823 5.64364 116.817 5.64574 116.81 5.64575C116.815 5.64944 116.818 5.65364 116.819 5.65842C116.821 5.6632 116.82 5.66991 116.818 5.67858L116.813 5.6938C116.813 5.69393 116.813 5.6941 116.813 5.69433C116.811 5.70198 116.811 5.70714 116.814 5.70971L116.813 5.71362L116.782 5.70476C116.782 5.70268 116.782 5.70027 116.782 5.69749C116.783 5.69471 116.783 5.69147 116.784 5.68781L116.788 5.67425C116.791 5.66627 116.791 5.66046 116.789 5.65688C116.787 5.65327 116.782 5.65038 116.775 5.64825L116.746 5.63969L116.73 5.68936L116.702 5.68124L116.702 5.68124ZM116.916 5.68077C116.91 5.69459 116.909 5.70644 116.913 5.71633C116.916 5.72622 116.924 5.73317 116.936 5.73719C116.947 5.74126 116.958 5.74062 116.967 5.73524C116.977 5.72986 116.984 5.72026 116.989 5.70646C116.995 5.69267 116.995 5.68081 116.992 5.67091C116.988 5.66099 116.981 5.65401 116.969 5.64994C116.957 5.6459 116.947 5.64657 116.938 5.65195C116.928 5.65733 116.921 5.66693 116.916 5.68077L116.916 5.68077ZM116.888 5.67114C116.896 5.65088 116.908 5.63682 116.924 5.62897C116.94 5.62111 116.958 5.62059 116.978 5.62744C116.997 5.63431 117.011 5.64571 117.018 5.6617C117.025 5.67768 117.025 5.69578 117.017 5.71599C117.009 5.73624 116.997 5.75028 116.981 5.75815C116.965 5.76601 116.947 5.76652 116.927 5.75967C116.907 5.75281 116.894 5.74141 116.887 5.72544C116.88 5.70948 116.88 5.69138 116.888 5.67114H116.888ZM117.147 5.82804C117.14 5.83228 117.132 5.83459 117.125 5.83503C117.118 5.83542 117.11 5.83397 117.102 5.83061C117.084 5.8233 117.072 5.8114 117.066 5.79493C117.06 5.77845 117.061 5.76049 117.07 5.74109C117.079 5.72151 117.091 5.7081 117.108 5.70091C117.124 5.69369 117.142 5.69388 117.16 5.70141C117.176 5.70797 117.188 5.71699 117.195 5.72851C117.202 5.74003 117.203 5.75266 117.2 5.76633L117.172 5.75534C117.174 5.74829 117.173 5.74208 117.169 5.73669C117.165 5.73131 117.16 5.72694 117.151 5.72366C117.141 5.71928 117.13 5.71959 117.121 5.72463C117.111 5.72966 117.104 5.73883 117.098 5.75212C117.092 5.76548 117.09 5.77723 117.093 5.78742C117.096 5.79758 117.103 5.80494 117.115 5.80949C117.123 5.81291 117.131 5.81339 117.139 5.81097C117.147 5.80852 117.153 5.80346 117.158 5.79578L117.129 5.78393L117.138 5.7629L117.192 5.78459L117.162 5.85108L117.144 5.84386L117.147 5.82804V5.82804ZM117.281 5.82452L117.311 5.83875C117.318 5.84182 117.323 5.8428 117.328 5.8417C117.332 5.84058 117.336 5.83728 117.339 5.83178C117.341 5.82658 117.342 5.82193 117.34 5.81782C117.339 5.81373 117.335 5.81028 117.329 5.8075L117.297 5.79272L117.281 5.82452H117.281ZM117.22 5.87995L117.282 5.75996L117.343 5.78846C117.357 5.79486 117.365 5.80242 117.369 5.81109C117.373 5.81977 117.372 5.82987 117.366 5.84138C117.362 5.8487 117.357 5.85406 117.352 5.85745C117.346 5.86085 117.34 5.86202 117.333 5.86097C117.337 5.86539 117.34 5.87001 117.34 5.87491C117.34 5.8798 117.339 5.88633 117.335 5.89454L117.328 5.90895C117.328 5.90905 117.328 5.90922 117.328 5.90943C117.324 5.91666 117.324 5.92178 117.326 5.92473L117.324 5.92839L117.296 5.91514C117.296 5.91303 117.296 5.91065 117.297 5.90795C117.298 5.90526 117.299 5.90216 117.3 5.89869L117.307 5.8859C117.31 5.87834 117.311 5.87263 117.31 5.8688C117.309 5.86496 117.305 5.86143 117.298 5.85821L117.27 5.84538L117.246 5.89204L117.22 5.87995L117.22 5.87995ZM117.377 5.95662L117.445 5.83987L117.534 5.88704L117.522 5.90734L117.458 5.87335L117.444 5.89824L117.502 5.92933L117.491 5.9493L117.432 5.91821L117.414 5.94824L117.482 5.98383L117.469 6.00539L117.377 5.95661V5.95662ZM117.535 5.99803L117.56 6.01203C117.557 6.01881 117.556 6.02501 117.559 6.03061C117.561 6.03619 117.567 6.04139 117.575 6.04623C117.583 6.05037 117.589 6.05223 117.594 6.0519C117.599 6.05158 117.603 6.04901 117.606 6.04425C117.611 6.03729 117.604 6.02556 117.586 6.00897C117.585 6.00876 117.585 6.00857 117.585 6.0084C117.585 6.00797 117.584 6.00731 117.583 6.00639C117.573 5.9976 117.567 5.99042 117.564 5.98478C117.561 5.97976 117.56 5.9744 117.561 5.96876C117.561 5.9631 117.563 5.95731 117.567 5.95134C117.574 5.94021 117.584 5.93397 117.595 5.93258C117.607 5.93122 117.62 5.93483 117.635 5.94345C117.649 5.95151 117.658 5.96097 117.662 5.97181C117.666 5.98268 117.665 5.99396 117.658 6.00574L117.634 5.9921C117.637 5.98629 117.638 5.98081 117.635 5.97562C117.633 5.9704 117.628 5.96566 117.621 5.96139C117.615 5.95767 117.609 5.956 117.604 5.9564C117.599 5.9568 117.595 5.95922 117.592 5.96368C117.588 5.96974 117.592 5.97816 117.604 5.98902C117.607 5.99196 117.609 5.99428 117.611 5.99593C117.619 6.00306 117.624 6.00832 117.627 6.01159C117.63 6.01488 117.632 6.01806 117.634 6.02108C117.637 6.02647 117.639 6.03201 117.638 6.03768C117.638 6.04335 117.636 6.0492 117.632 6.05515C117.625 6.06703 117.615 6.07383 117.602 6.07557C117.59 6.07728 117.576 6.07376 117.56 6.06494C117.545 6.05627 117.535 6.04612 117.531 6.03451C117.527 6.02287 117.528 6.01073 117.535 5.99803L117.535 5.99803ZM117.683 6.08608L117.707 6.10129C117.703 6.1079 117.703 6.11408 117.705 6.11981C117.707 6.12551 117.712 6.13095 117.72 6.13623C117.727 6.14072 117.733 6.1429 117.739 6.14282C117.744 6.14276 117.748 6.14042 117.751 6.13579C117.756 6.12906 117.75 6.11701 117.733 6.09955C117.733 6.09931 117.732 6.09913 117.732 6.09892C117.732 6.09849 117.731 6.09778 117.73 6.09681C117.721 6.08758 117.715 6.08009 117.712 6.0743C117.71 6.06913 117.709 6.06375 117.71 6.05814C117.711 6.05253 117.713 6.04685 117.718 6.04107C117.725 6.03032 117.735 6.02453 117.747 6.02374C117.758 6.02297 117.772 6.02725 117.786 6.03659C117.8 6.04536 117.808 6.05522 117.811 6.06626C117.815 6.07733 117.813 6.08853 117.805 6.09994L117.782 6.08514C117.786 6.07949 117.786 6.07403 117.784 6.06874C117.782 6.06343 117.778 6.05844 117.771 6.05383C117.764 6.04976 117.759 6.04783 117.754 6.04795C117.749 6.04812 117.745 6.05034 117.742 6.05462C117.737 6.06048 117.741 6.0691 117.752 6.08055C117.755 6.08363 117.757 6.08606 117.759 6.08779C117.766 6.0953 117.771 6.10077 117.774 6.10422C117.776 6.10765 117.779 6.11093 117.78 6.11402C117.783 6.11958 117.784 6.12516 117.784 6.13083C117.783 6.13649 117.781 6.14222 117.777 6.14798C117.769 6.15948 117.758 6.16579 117.746 6.16686C117.733 6.16793 117.719 6.16372 117.704 6.15415C117.69 6.14474 117.681 6.13413 117.677 6.1223C117.673 6.11044 117.675 6.0984 117.683 6.08608L117.683 6.08608ZM117.861 6.17619C117.852 6.18789 117.848 6.19902 117.848 6.20942C117.848 6.21985 117.853 6.22861 117.863 6.23568C117.873 6.24283 117.883 6.24516 117.894 6.24267C117.905 6.24014 117.915 6.23298 117.924 6.22124C117.933 6.20957 117.938 6.19847 117.937 6.18798C117.937 6.17752 117.932 6.16874 117.922 6.16158C117.912 6.15448 117.902 6.15223 117.891 6.15475C117.881 6.15729 117.871 6.16443 117.861 6.17619L117.861 6.17619ZM117.838 6.15929C117.851 6.14207 117.867 6.13197 117.885 6.12896C117.903 6.12593 117.92 6.13044 117.937 6.1425C117.954 6.15452 117.963 6.16916 117.965 6.18639C117.967 6.20368 117.961 6.22088 117.947 6.23804C117.934 6.25523 117.918 6.26533 117.9 6.26834C117.882 6.27132 117.865 6.2668 117.848 6.25479C117.831 6.24273 117.822 6.22812 117.82 6.21092C117.818 6.19371 117.824 6.17648 117.838 6.15929L117.838 6.15929Z" fill="#009C37"/>
</g>
<path d="M3 32H4.328C4.78133 32 5.112 32.1067 5.32 32.32C5.528 32.528 5.632 32.8507 5.632 33.288V33.512C5.632 33.8 5.584 34.0347 5.488 34.216C5.39733 34.3973 5.256 34.528 5.064 34.608V34.624C5.50133 34.7733 5.72 35.1627 5.72 35.792V36.272C5.72 36.704 5.60533 37.0347 5.376 37.264C5.152 37.488 4.82133 37.6 4.384 37.6H3V32ZM4.224 34.28C4.4 34.28 4.53067 34.2347 4.616 34.144C4.70667 34.0533 4.752 33.9013 4.752 33.688V33.376C4.752 33.1733 4.71467 33.0267 4.64 32.936C4.57067 32.8453 4.45867 32.8 4.304 32.8H3.88V34.28H4.224ZM4.384 36.8C4.53867 36.8 4.65333 36.76 4.728 36.68C4.80267 36.5947 4.84 36.4507 4.84 36.248V35.76C4.84 35.504 4.79467 35.328 4.704 35.232C4.61867 35.1307 4.47467 35.08 4.272 35.08H3.88V36.8H4.384Z" fill="#1E1C1A"/>
<path d="M6.23438 32H7.53837C7.99171 32 8.32237 32.1067 8.53038 32.32C8.73838 32.528 8.84238 32.8507 8.84238 33.288V33.632C8.84238 34.2133 8.65037 34.5813 8.26638 34.736V34.752C8.47971 34.816 8.62904 34.9467 8.71438 35.144C8.80504 35.3413 8.85038 35.6053 8.85038 35.936V36.92C8.85038 37.08 8.85571 37.2107 8.86637 37.312C8.87704 37.408 8.90371 37.504 8.94638 37.6H8.05037C8.01837 37.5093 7.99704 37.424 7.98638 37.344C7.97571 37.264 7.97038 37.12 7.97038 36.912V35.888C7.97038 35.632 7.92771 35.4533 7.84238 35.352C7.76238 35.2507 7.62104 35.2 7.41838 35.2H7.11438V37.6H6.23438V32ZM7.43438 34.4C7.61038 34.4 7.74104 34.3547 7.82638 34.264C7.91704 34.1733 7.96238 34.0213 7.96238 33.808V33.376C7.96238 33.1733 7.92504 33.0267 7.85038 32.936C7.78104 32.8453 7.66904 32.8 7.51438 32.8H7.11438V34.4H7.43438Z" fill="#1E1C1A"/>
<g clip-path="url(#clip2_189_1988)">
<path d="M6.5218 4.00197L6.2998 4.07997L6.5218 4.15797L6.5998 4.37997L6.6778 4.15797L6.8998 4.07997L6.6778 4.00197L6.5998 3.77997L6.5218 4.00197Z" fill="white"/>
<path d="M7.42171 4.48201L7.19971 4.56001L7.42171 4.63801L7.49971 4.86001L7.57771 4.63801L7.79971 4.56001L7.57771 4.48201L7.49971 4.26001L7.42171 4.48201Z" fill="white"/>
<path d="M6.8221 6.04201L6.6001 6.12001L6.8221 6.19801L6.9001 6.42001L6.9781 6.19801L7.2001 6.12001L6.9781 6.04201L6.9001 5.82001L6.8221 6.04201Z" fill="white"/>
<path d="M5.7718 4.722L5.5498 4.8L5.7718 4.878L5.8498 5.1L5.9278 4.878L6.1498 4.8L5.9278 4.722L5.8498 4.5L5.7718 4.722Z" fill="white"/>
<path d="M3.08984 7.38003C4.46984 6.90003 5.84984 6.66003 7.19984 6.54003C8.39984 6.42003 9.59984 6.48003 10.6798 6.63003" stroke="#00875D" stroke-width="0.06"/>
<path d="M3.60016 8.39999H3.48291V7.58099H3.59722L3.8716 7.91099L4.14652 7.58099H4.24618V8.39999H4.12894V7.76999L3.871 8.08199H3.8581L3.60016 7.76999V8.39999Z" fill="white"/>
<path d="M4.57812 8.39999V7.58099H5.03869V7.68299H4.69537V7.93499H5.02933V8.03699H4.69537V8.29499H5.05333V8.39999H4.57812Z" fill="white"/>
<path d="M5.33984 8.39999V7.58099H5.39846H5.5496C5.6336 7.58099 5.69834 7.59899 5.74382 7.63799C5.78936 7.67699 5.8121 7.73099 5.8121 7.80299C5.8121 7.87199 5.78924 7.92899 5.74352 7.96499C5.72204 7.98299 5.6963 7.99799 5.66618 8.00699L5.68496 8.01899C5.72636 8.04299 5.7674 8.08799 5.80802 8.14799L5.97206 8.39999H5.83142L5.69666 8.18699C5.6627 8.13299 5.63066 8.09399 5.6006 8.07299C5.57798 8.05199 5.54324 8.03999 5.50376 8.03999H5.46452V8.39999H5.34734H5.33984ZM5.45702 7.93199H5.5496C5.59646 7.93199 5.63156 7.92299 5.65478 7.90199C5.678 7.88099 5.68964 7.85099 5.68964 7.81199C5.68964 7.76999 5.678 7.73999 5.65478 7.71899C5.63156 7.69799 5.59646 7.68899 5.5496 7.68899H5.45702V7.93199Z" fill="white"/>
<path d="M6.85201 8.33697C6.79615 8.36397 6.74635 8.38497 6.70261 8.39397C6.65887 8.40597 6.61021 8.41197 6.55669 8.41197C6.43291 8.41197 6.32809 8.36997 6.24235 8.28897C6.15661 8.20797 6.11377 8.10897 6.11377 7.98897C6.11377 7.87197 6.15661 7.77297 6.24235 7.69197C6.32809 7.60797 6.43291 7.56897 6.55669 7.56897C6.61021 7.56897 6.65887 7.57497 6.70261 7.58397C6.74635 7.59597 6.79615 7.61397 6.85201 7.64097V7.76997C6.80203 7.73697 6.75487 7.71297 6.71053 7.69797C6.66619 7.68297 6.61723 7.67697 6.56377 7.67697C6.46723 7.67697 6.38857 7.70397 6.32761 7.76397C6.26665 7.82097 6.23623 7.89597 6.23623 7.98897C6.23623 8.08197 6.26665 8.15697 6.32761 8.21697C6.38857 8.27397 6.46723 8.30397 6.56377 8.30397C6.61723 8.30397 6.66619 8.29497 6.71053 8.28297C6.75487 8.26797 6.80203 8.24397 6.85201 8.20797V8.33697Z" fill="white"/>
<path d="M7.51952 8.41197C7.39646 8.41197 7.29242 8.36997 7.20752 8.28897C7.1225 8.20797 7.08008 8.10897 7.08008 7.98897C7.08008 7.87197 7.1225 7.77297 7.20752 7.69197C7.29242 7.60797 7.39646 7.56897 7.51952 7.56897C7.64294 7.56897 7.74716 7.60797 7.83212 7.69197C7.91708 7.77297 7.95956 7.87197 7.95956 7.98897C7.95956 8.10897 7.91708 8.20797 7.83212 8.28897C7.74716 8.36997 7.64294 8.41197 7.51952 8.41197ZM7.51952 8.30397C7.61366 8.30397 7.6901 8.27397 7.7489 8.21697C7.8077 8.15697 7.8371 8.08197 7.8371 7.98897C7.8371 7.89597 7.8077 7.82097 7.7489 7.76397C7.6901 7.70397 7.61366 7.67697 7.51952 7.67697C7.42616 7.67697 7.35002 7.70397 7.29098 7.76397C7.232 7.82097 7.20254 7.89597 7.20254 7.98897C7.20254 8.08197 7.232 8.15697 7.29098 8.21697C7.35002 8.27397 7.42616 8.30397 7.51952 8.30397Z" fill="white"/>
<path d="M8.60256 7.75797C8.574 7.73097 8.54514 7.70997 8.51586 7.69497C8.48652 7.68297 8.45507 7.67697 8.42147 7.67697C8.38007 7.67697 8.34647 7.68597 8.32073 7.70397C8.29493 7.72197 8.28203 7.74597 8.28203 7.77597C8.28203 7.80297 8.29302 7.82697 8.31486 7.84797C8.33634 7.87197 8.37539 7.89897 8.43203 7.93197C8.50589 7.97397 8.55822 8.01297 8.58906 8.04897C8.61954 8.08797 8.63478 8.12997 8.63478 8.17797C8.63478 8.24997 8.61378 8.30697 8.57178 8.34897C8.52978 8.39097 8.47368 8.41197 8.40336 8.41197C8.3592 8.41197 8.31894 8.40597 8.28264 8.39097C8.24634 8.37897 8.20938 8.35797 8.17188 8.32797V8.18397C8.20745 8.22597 8.24346 8.25597 8.28 8.27397C8.31654 8.29497 8.35452 8.30397 8.39394 8.30397C8.43264 8.30397 8.46407 8.29197 8.48831 8.27397C8.51249 8.25297 8.52461 8.22597 8.52461 8.19597C8.52461 8.16597 8.5137 8.13897 8.4918 8.11497C8.47032 8.09097 8.43125 8.06397 8.37461 8.03097C8.30081 7.98897 8.24843 7.94997 8.21759 7.91397C8.18711 7.87797 8.17188 7.83597 8.17188 7.79397C8.17188 7.72497 8.19456 7.67097 8.23986 7.62897C8.28516 7.58997 8.34569 7.56897 8.42147 7.56897C8.45387 7.56897 8.484 7.57197 8.51172 7.58097C8.53944 7.58997 8.56974 7.60497 8.60256 7.62597V7.75797Z" fill="white"/>
<path d="M9.5521 8.08923C9.5521 8.18523 9.5197 8.26023 9.4555 8.32023C9.3907 8.37723 9.3055 8.40723 9.1999 8.40723C9.0943 8.40723 9.0091 8.37723 8.94466 8.32023C8.88244 8.26023 8.8501 8.18523 8.8501 8.08923V7.57623H8.96728V8.06823C8.96728 8.14023 8.9881 8.20023 9.0295 8.23923C9.0715 8.28123 9.1291 8.30223 9.2023 8.30223C9.2755 8.30223 9.3331 8.28123 9.3751 8.23923C9.4165 8.20023 9.4369 8.14023 9.4369 8.06823V7.57623H9.5545L9.5521 8.08923Z" fill="white"/>
<path d="M9.78027 8.39999V7.58099H9.89727V8.29499H10.2669V8.39999H9.78027Z" fill="white"/>
</g>
</g>
<rect x="0.5" y="0.5" width="123" height="39" rx="1.5" stroke="#1E1C1A"/>
<defs>
<clipPath id="clip0_189_1988">
<rect width="124" height="40" rx="2" fill="white"/>
</clipPath>
<clipPath id="clip1_189_1988">
<rect width="9" height="6" fill="white" transform="translate(112 3)"/>
</clipPath>
<clipPath id="clip2_189_1988">
<rect width="7.8" height="6" fill="white" transform="translate(3 3)"/>
</clipPath>
</defs>
</svg>
