<svg width="228" height="102" viewBox="0 0 228 102" fill="none" xmlns="http://www.w3.org/2000/svg">
<path d="M3.50852 101.581C2.67564 101.491 2.07277 100.742 2.17435 99.9106C3.20843 91.4447 5.19119 83.1218 8.0853 75.099C8.36958 74.3109 9.24529 73.9144 10.0295 74.2092L13.5794 75.5435C14.3636 75.8383 14.7593 76.7126 14.4757 77.501C11.7823 84.9875 9.93266 92.7512 8.96128 100.648C8.859 101.479 8.11159 102.081 7.2787 101.991L3.50852 101.581Z" fill="#6AA76E"/>
<path d="M29.3667 41.2497C28.7268 40.709 28.6457 39.7511 29.1949 39.1185C34.7863 32.6781 41.0842 26.8869 47.9699 21.8541C48.6462 21.3597 49.5939 21.5207 50.0792 22.2036L52.2761 25.2948C52.7614 25.9777 52.6005 26.9239 51.9246 27.4188C45.5052 32.1193 39.6304 37.5214 34.4093 43.525C33.8595 44.1571 32.9032 44.2383 32.2633 43.6975L29.3667 41.2497Z" fill="#A5A849"/>
<path d="M84.5412 5.69218C84.3131 4.88605 84.7814 4.0466 85.5905 3.82925C93.8274 1.61663 102.287 0.33724 110.81 0.0151983C111.647 -0.0164356 112.343 0.646982 112.363 1.48452L112.456 5.27574C112.476 6.11328 111.814 6.8077 110.977 6.84005C103.026 7.14724 95.135 8.34068 87.4493 10.3982C86.6401 10.6149 85.8019 10.1474 85.5738 9.34126L84.5412 5.69218Z" fill="#E8A91B"/>
<path d="M150.166 7.06684C150.428 6.27096 151.286 5.83692 152.078 6.10918C160.144 8.88084 167.873 12.5507 175.119 17.0496C175.83 17.4915 176.036 18.4305 175.585 19.1363L173.542 22.3312C173.09 23.037 172.153 23.2423 171.441 22.8009C164.678 18.6098 157.468 15.1865 149.946 12.5945C149.154 12.3216 148.72 11.4653 148.982 10.6695L150.166 7.06684Z" fill="#C0641C"/>
<path d="M203.804 44.9036C204.466 44.3902 205.419 44.5099 205.924 45.1787C211.061 51.9869 215.416 59.3512 218.907 67.1327C219.25 67.897 218.896 68.7905 218.127 69.1233L214.647 70.6294C213.878 70.9621 212.986 70.6081 212.642 69.844C209.379 62.5877 205.316 55.7181 200.53 49.3629C200.026 48.6937 200.145 47.7415 200.807 47.228L203.804 44.9036Z" fill="#A5321D"/>
<path d="M11.9293 69.4833C11.1593 69.1533 10.8016 68.261 11.1419 67.4954C14.606 59.7017 18.9355 52.3223 24.0488 45.4961C24.5511 44.8256 25.5045 44.7025 26.1682 45.2137L29.1729 47.5276C29.8366 48.0387 29.9594 48.9906 29.4577 49.6615C24.6931 56.0334 20.6545 62.9171 17.4167 70.1849C17.0758 70.9501 16.185 71.3073 15.415 70.9773L11.9293 69.4833Z" fill="#87A65B"/>
<path d="M54.2969 19.348C53.8431 18.6438 54.0455 17.7041 54.7557 17.2597C61.9858 12.7355 69.7017 9.03868 77.7579 6.23888C78.5493 5.96386 79.4085 6.39491 79.6729 7.18986L80.87 10.7883C81.1344 11.5833 80.704 12.4411 79.9128 12.7167C72.3997 15.335 65.2022 18.7835 58.4539 22.9981C57.7433 23.4419 56.8051 23.2399 56.3513 22.5357L54.2969 19.348Z" fill="#C6A832"/>
<path d="M117.457 1.47563C117.474 0.638028 118.167 -0.0278177 119.005 0.000893629C127.529 0.293184 135.993 1.54304 144.237 3.7269C145.047 3.94142 145.518 4.77923 145.293 5.58615L144.273 9.23881C144.048 10.0457 143.211 10.5161 142.401 10.3023C134.708 8.27161 126.813 7.10572 118.862 6.82629C118.024 6.79687 117.36 6.10476 117.377 5.26716L117.457 1.47563Z" fill="#D1831C"/>
<path d="M179.812 21.9772C180.295 21.2926 181.242 21.1283 181.92 21.6203C188.824 26.6291 195.142 32.3982 200.755 38.8189C201.307 39.4497 201.229 40.4078 200.591 40.9507L197.703 43.4087C197.065 43.9516 196.109 43.8738 195.557 43.2436C190.315 37.2584 184.421 31.8768 177.985 27.1988C177.308 26.7062 177.143 25.7607 177.626 25.0761L179.812 21.9772Z" fill="#B34A1C"/>
<path d="M220.043 73.8427C220.827 73.5452 221.704 73.9386 221.991 74.7256C224.913 82.7383 226.925 91.0541 227.988 99.5164C228.093 100.348 227.492 101.098 226.66 101.192L222.891 101.615C222.059 101.708 221.309 101.109 221.204 100.277C220.205 92.3841 218.328 84.6269 215.609 77.1499C215.322 76.3626 215.715 75.4869 216.498 75.1894L220.043 73.8427Z" fill="#97181C"/>
<rect x="1" y="80" width="14" height="14" rx="7" fill="#ECDA24"/>
<path d="M9.10966 84L6.52929 85.9182C6.3633 86.0416 6.12779 85.923 6.12779 85.7163V84H5.0003V86.3446C5.0003 86.7557 5.22652 87.1416 5.59776 87.319C5.74607 87.39 5.90158 87.425 6.05528 87.425C6.27641 87.425 6.49364 87.3528 6.68 87.2117L11 84.0003H9.10966V84Z" fill="#194B5B"/>
<path d="M6.89034 89.4199L9.47071 87.5017C9.6367 87.3783 9.87221 87.4969 9.87221 87.7037V89.4199H11V87.0754C11 86.664 10.7738 86.2783 10.4025 86.101C10.2542 86.03 10.0987 85.9952 9.94502 85.9952C9.72389 85.9952 9.50666 86.0674 9.3203 86.2088L5 89.4199H6.89034Z" fill="#194B5B"/>
<rect x="1" y="80" width="14" height="14" rx="7" stroke="#194B5B" stroke-width="2"/>
</svg>
