<svg width="226" height="106" viewBox="0 0 226 106" fill="none" xmlns="http://www.w3.org/2000/svg">
<path d="M1.50851 105.581C0.675644 105.491 0.0727692 104.742 0.174347 103.911C1.20844 95.4447 3.19119 87.1218 6.0853 79.099C6.36958 78.3109 7.24529 77.9144 8.02951 78.2092L11.5794 79.5435C12.3636 79.8383 12.7593 80.7126 12.4757 81.501C9.78226 88.9875 7.93266 96.7512 6.96129 104.648C6.85899 105.479 6.11159 106.081 5.2787 105.991L1.50851 105.581Z" fill="#6AA76E"/>
<path d="M27.3667 45.2497C26.7268 44.709 26.6457 43.7511 27.1949 43.1185C32.7863 36.6781 39.0842 30.8869 45.9699 25.8541C46.6463 25.3597 47.5939 25.5207 48.0792 26.2036L50.2761 29.2948C50.7614 29.9777 50.6005 30.9239 49.9246 31.4188C43.5052 36.1193 37.6304 41.5214 32.4093 47.525C31.8595 48.1571 30.9032 48.2383 30.2633 47.6975L27.3667 45.2497Z" fill="#A5A849"/>
<path d="M82.5412 9.69218C82.3131 8.88605 82.7814 8.0466 83.5905 7.82925C91.8274 5.61663 100.287 4.33724 108.81 4.0152C109.647 3.98357 110.343 4.64698 110.363 5.48452L110.456 9.27574C110.476 10.1133 109.814 10.8077 108.977 10.84C101.026 11.1472 93.135 12.3407 85.4494 14.3982C84.6401 14.6149 83.8019 14.1474 83.5738 13.3413L82.5412 9.69218Z" fill="#E8A91B"/>
<path d="M148.166 11.0668C148.428 10.271 149.286 9.83692 150.078 10.1092C158.144 12.8808 165.873 16.5507 173.119 21.0496C173.83 21.4915 174.036 22.4305 173.585 23.1363L171.542 26.3312C171.09 27.037 170.153 27.2423 169.441 26.8009C162.678 22.6098 155.468 19.1865 147.946 16.5945C147.154 16.3216 146.72 15.4653 146.982 14.6695L148.166 11.0668Z" fill="#C0641C"/>
<path d="M201.804 48.9036C202.466 48.3902 203.419 48.5099 203.924 49.1787C209.061 55.9869 213.416 63.3512 216.907 71.1327C217.25 71.897 216.896 72.7905 216.127 73.1233L212.647 74.6294C211.878 74.9621 210.986 74.6081 210.642 73.844C207.379 66.5877 203.316 59.7181 198.53 53.3629C198.026 52.6937 198.145 51.7415 198.807 51.228L201.804 48.9036Z" fill="#A5321D"/>
<path d="M9.92932 73.4833C9.15927 73.1533 8.80164 72.261 9.14191 71.4954C12.606 63.7017 16.9355 56.3223 22.0488 49.4961C22.5511 48.8256 23.5045 48.7025 24.1682 49.2137L27.1729 51.5276C27.8366 52.0387 27.9594 52.9906 27.4577 53.6615C22.6931 60.0334 18.6544 66.9171 15.4167 74.1849C15.0758 74.9501 14.185 75.3073 13.415 74.9773L9.92932 73.4833Z" fill="#87A65B"/>
<path d="M52.2969 23.348C51.8431 22.6438 52.0455 21.7041 52.7557 21.2597C59.9858 16.7355 67.7017 13.0387 75.7579 10.2389C76.5493 9.96386 77.4085 10.3949 77.6729 11.1899L78.87 14.7883C79.1344 15.5833 78.704 16.441 77.9128 16.7167C70.3997 19.335 63.2021 22.7835 56.4539 26.9981C55.7433 27.4419 54.8051 27.2399 54.3513 26.5357L52.2969 23.348Z" fill="#C6A832"/>
<path d="M115.457 5.47563C115.474 4.63803 116.167 3.97218 117.005 4.00089C125.529 4.29318 133.993 5.54305 142.237 7.7269C143.047 7.94142 143.518 8.77923 143.293 9.58615L142.273 13.2388C142.048 14.0457 141.211 14.5161 140.401 14.3023C132.708 12.2716 124.813 11.1057 116.862 10.8263C116.024 10.7969 115.36 10.1048 115.377 9.26716L115.457 5.47563Z" fill="#D1831C"/>
<path d="M177.812 25.9772C178.295 25.2926 179.242 25.1283 179.92 25.6203C186.824 30.6291 193.142 36.3982 198.755 42.819C199.307 43.4497 199.229 44.4078 198.591 44.9507L195.703 47.4087C195.065 47.9516 194.109 47.8738 193.557 47.2436C188.315 41.2584 182.421 35.8768 175.985 31.1988C175.308 30.7062 175.143 29.7607 175.626 29.0761L177.812 25.9772Z" fill="#B34A1C"/>
<path d="M218.043 77.8427C218.827 77.5452 219.704 77.9386 219.991 78.7256C222.913 86.7383 224.925 95.0541 225.988 103.516C226.093 104.348 225.492 105.098 224.66 105.192L220.891 105.615C220.059 105.708 219.309 105.109 219.204 104.277C218.205 96.3841 216.328 88.6269 213.609 81.1499C213.322 80.3626 213.715 79.4869 214.498 79.1894L218.043 77.8427Z" fill="#97181C"/>
<rect x="121" y="1" width="14" height="14" rx="7" fill="#ECDA24"/>
<path d="M129.11 5L126.529 6.9182C126.363 7.04165 126.128 6.923 126.128 6.71625V5H125V7.34457C125 7.75565 125.227 8.14157 125.598 8.31895C125.746 8.38996 125.902 8.42502 126.055 8.42502C126.276 8.42502 126.494 8.35281 126.68 8.21168L131 5.0003H129.11V5Z" fill="#194B5B"/>
<path d="M126.89 10.4199L129.471 8.50172C129.637 8.37827 129.872 8.49692 129.872 8.70367V10.4199H131V8.07535C131 7.66397 130.774 7.27835 130.403 7.10097C130.254 7.02996 130.099 6.9952 129.945 6.9952C129.724 6.9952 129.507 7.06741 129.32 7.20884L125 10.4199H126.89Z" fill="#194B5B"/>
<rect x="121" y="1" width="14" height="14" rx="7" stroke="#194B5B" stroke-width="2"/>
</svg>
