<svg width="15" height="14" viewBox="0 0 15 14" fill="none" xmlns="http://www.w3.org/2000/svg">
<path d="M12.7523 10.7932V11.6686C12.7523 11.9907 12.4908 12.2522 12.1687 12.2522H11.0015C10.6794 12.2522 10.418 11.9907 10.418 11.6686V10.7932" stroke="white" stroke-linecap="round" stroke-linejoin="round"/>
<path d="M4.58211 10.7932V11.6686C4.58211 11.9907 4.32067 12.2522 3.99853 12.2522H2.83138C2.50924 12.2522 2.2478 11.9907 2.2478 11.6686V10.7932" stroke="white" stroke-linecap="round" stroke-linejoin="round"/>
<path fill-rule="evenodd" clip-rule="evenodd" d="M2.2478 10.7932V8.01714C2.2478 7.55261 2.43221 7.10735 2.76077 6.77938L3.41496 6.1246H11.585L12.2392 6.77879C12.5678 7.10735 12.7522 7.55261 12.7522 8.01714V10.7932H2.2478Z" stroke="white" stroke-linecap="round" stroke-linejoin="round"/>
<path d="M12.7522 8.45892L11.0015 8.60482" stroke="white" stroke-linecap="round" stroke-linejoin="round"/>
<path d="M3.99853 8.60482L2.2478 8.45892" stroke="white" stroke-linecap="round" stroke-linejoin="round"/>
<path d="M5.16577 10.7932L5.74935 9.04251H9.25081L9.83438 10.7932" stroke="white" stroke-linecap="round" stroke-linejoin="round"/>
<path d="M12.7521 5.54104L11.585 5.83282" stroke="white" stroke-linecap="round" stroke-linejoin="round"/>
<path d="M3.41496 5.83282L2.2478 5.54104" stroke="white" stroke-linecap="round" stroke-linejoin="round"/>
<path d="M3.41504 6.12462V5.82933L3.90291 3.99865C4.07273 3.35963 4.65164 2.91495 5.31225 2.91495H9.73809C10.4133 2.91495 11.0004 3.37831 11.1573 4.03541L11.5851 5.82933V6.12462" stroke="white" stroke-linecap="round" stroke-linejoin="round"/>
</svg>
