<svg width="16" height="16" viewBox="0 0 16 16" fill="none" xmlns="http://www.w3.org/2000/svg">
<path d="M7.99996 7.85999V14.66" stroke="white" stroke-linecap="round" stroke-linejoin="round"/>
<path d="M2.18262 4.59866L7.99995 7.86L13.812 4.60133" stroke="white" stroke-linecap="round" stroke-linejoin="round"/>
<path fill-rule="evenodd" clip-rule="evenodd" d="M2.67267 4.11332L7.256 1.50332C7.66 1.27332 8.15467 1.26999 8.56133 1.49466L13.3113 4.11666C13.736 4.35066 14 4.79732 14 5.28199V10.6407C14 11.1167 13.7453 11.5567 13.3327 11.794L8.666 14.4827C8.254 14.72 7.746 14.72 7.33333 14.4827L2.66667 11.794C2.25467 11.5567 2 11.1167 2 10.6407V5.26999C2 4.79199 2.25667 4.34999 2.67267 4.11332Z" stroke="white" stroke-linecap="round" stroke-linejoin="round"/>
<path d="M2 7.95334L5 9.63534V13.1387" stroke="white" stroke-linecap="round" stroke-linejoin="round"/>
<path d="M11 13.1387V9.63534L14 7.95334" stroke="white" stroke-linecap="round" stroke-linejoin="round"/>
<path d="M10.9767 2.82733L8.00002 4.496L4.97668 2.80133" stroke="white" stroke-linecap="round" stroke-linejoin="round"/>
</svg>
