<svg width="17" height="16" viewBox="0 0 17 16" fill="none" xmlns="http://www.w3.org/2000/svg">
<path fill-rule="evenodd" clip-rule="evenodd" d="M12.776 4.276L10.8907 2.39067C10.6407 2.14067 10.3014 2 9.94804 2H5.16671C4.43004 2 3.83337 2.59667 3.83337 3.33333V12.6667C3.83337 13.4033 4.43004 14 5.16671 14H11.8334C12.57 14 13.1667 13.4033 13.1667 12.6667V5.21867C13.1667 4.86533 13.026 4.526 12.776 4.276V4.276Z" stroke="white" stroke-linecap="round" stroke-linejoin="round"/>
<path d="M13.1667 5.33333H10.5C10.132 5.33333 9.83337 5.03467 9.83337 4.66667V2" stroke="white" stroke-linecap="round" stroke-linejoin="round"/>
<path d="M6.16674 11.3107C6.16674 11.3087 6.16541 11.3073 6.16341 11.3073C6.16141 11.3073 6.16008 11.3087 6.16008 11.3107C6.16008 11.3127 6.16141 11.314 6.16341 11.314C6.16541 11.314 6.16674 11.3127 6.16674 11.3107" stroke="white" stroke-linecap="round" stroke-linejoin="round"/>
<path d="M5.83337 7.33H11.1667" stroke="white" stroke-linecap="round" stroke-linejoin="round"/>
<path d="M5.83337 9.33H11.1667" stroke="white" stroke-linecap="round" stroke-linejoin="round"/>
<path d="M10.8334 11.3333C10.8334 11.3313 10.832 11.33 10.83 11.33C10.828 11.33 10.8267 11.3313 10.8267 11.3333C10.8267 11.3353 10.828 11.3367 10.83 11.3367C10.832 11.3367 10.8334 11.3353 10.8334 11.3333" stroke="white" stroke-linecap="round" stroke-linejoin="round"/>
<path d="M8.50341 11.3267C8.50341 11.3247 8.50208 11.3233 8.50008 11.3233C8.49808 11.3233 8.49675 11.3247 8.49675 11.3267C8.49675 11.3287 8.49808 11.33 8.50008 11.33C8.50208 11.33 8.50341 11.3287 8.50341 11.3267" stroke="white" stroke-linecap="round" stroke-linejoin="round"/>
</svg>
