<svg width="17" height="16" viewBox="0 0 17 16" fill="none" xmlns="http://www.w3.org/2000/svg">
<path fill-rule="evenodd" clip-rule="evenodd" d="M8.17912 9.08867H6.19818C5.97747 9.08867 5.77107 8.97944 5.64694 8.79695L5.30328 8.29172C5.17916 8.10923 4.97276 8 4.75205 8H3.51245C2.96017 8 2.51245 8.44772 2.51245 9V13C2.51245 13.5523 2.96017 14 3.51245 14H8.17912C8.7314 14 9.17912 13.5523 9.17912 13V10.0887C9.17912 9.53638 8.7314 9.08867 8.17912 9.08867Z" stroke="white" stroke-linecap="round" stroke-linejoin="round"/>
<path d="M11.1666 14H12.1666C13.0871 14 13.8333 13.2538 13.8333 12.3333V5.58111C13.8333 5.05068 13.6225 4.54197 13.2475 4.1669L11.6664 2.58579C11.2913 2.21071 10.7826 2 10.2521 2H5.49992C4.57944 2 3.83325 2.74619 3.83325 3.66667V6" stroke="white" stroke-linecap="round" stroke-linejoin="round"/>
<path d="M13.8176 5.33333H11.5C10.9477 5.33333 10.5 4.88562 10.5 4.33333V2.01575" stroke="white" stroke-linecap="round" stroke-linejoin="round"/>
</svg>
