<svg width="16" height="16" viewBox="0 0 16 16" fill="none" xmlns="http://www.w3.org/2000/svg">
<path d="M7.76995 8.26278L5.10217 5.595" stroke="white" stroke-linecap="round" stroke-linejoin="round"/>
<path d="M7.59583 3.10063L10.2636 5.76841" stroke="white" stroke-linecap="round" stroke-linejoin="round"/>
<path d="M1.99756 14.0025H9.05783" stroke="white" stroke-linecap="round" stroke-linejoin="round"/>
<path d="M2.59778 14.0025L2.96126 12.9141C3.14238 12.3703 3.65063 12.003 4.22379 12.0017H6.83154C7.40642 12.001 7.91708 12.3686 8.09874 12.9141L8.45955 14.0025" stroke="white" stroke-linecap="round" stroke-linejoin="round"/>
<path fill-rule="evenodd" clip-rule="evenodd" d="M5.92721 4.86536L4.45994 6.03585C4.18864 6.25283 4.02234 6.57487 4.00249 6.92169C3.98264 7.26852 4.11112 7.60743 4.35589 7.85394L5.47369 8.97708C5.71645 9.2211 6.05166 9.35017 6.39539 9.33197C6.73912 9.31376 7.05882 9.15001 7.27444 8.8817L8.45894 7.41042C8.73918 7.06198 9.05677 6.74529 9.406 6.46603L10.8733 5.29554C11.1446 5.07857 11.3109 4.75652 11.3307 4.4097C11.3506 4.06288 11.2221 3.72396 10.9773 3.47745L9.86152 2.35498C9.61876 2.11096 9.28355 1.98189 8.93982 2.00009C8.59609 2.0183 8.27639 2.18205 8.06077 2.45036L6.87494 3.92164C6.59462 4.27004 6.2768 4.58652 5.92721 4.86536Z" stroke="white" stroke-linecap="round" stroke-linejoin="round"/>
<path d="M9.5847 6.32397L13.5357 9.66737C13.9117 9.98685 14.0789 10.4888 13.9697 10.97C13.8605 11.4511 13.4929 11.8317 13.0158 11.9575C12.5387 12.0833 12.0312 11.9335 11.6989 11.5688L8.20813 7.72456" stroke="white" stroke-linecap="round" stroke-linejoin="round"/>
</svg>
