<svg width="17" height="16" viewBox="0 0 17 16" fill="none" xmlns="http://www.w3.org/2000/svg">
<path d="M13.8356 7.33306L12.5964 7.93331" stroke="white" stroke-linecap="round" stroke-linejoin="round"/>
<path d="M4.40964 7.93331L3.16446 7.33306" stroke="white" stroke-linecap="round" stroke-linejoin="round"/>
<path d="M12.5957 7.9333L12.0922 5.52563C11.9468 4.83001 11.3332 4.3318 10.6229 4.3318H6.43983C5.74288 4.3318 5.13729 4.812 4.97856 5.49095L4.40765 7.9333" stroke="white" stroke-linecap="round" stroke-linejoin="round"/>
<path d="M10.6496 4.3318L10.4168 3.21734C10.3488 2.89521 10.0653 2.66444 9.73587 2.66444H7.29086C6.96872 2.66444 6.6886 2.88654 6.61457 3.20067L6.35046 4.3318" stroke="white" stroke-linecap="round" stroke-linejoin="round"/>
<path d="M8.50004 4.3318V2.66444" stroke="white" stroke-linecap="round" stroke-linejoin="round"/>
<path d="M5.83224 12.1871V13.3356C5.83224 13.7037 5.53345 14.0025 5.16529 14.0025H3.8314C3.46325 14.0025 3.16446 13.7037 3.16446 13.3356V11.7336" stroke="white" stroke-linecap="round" stroke-linejoin="round"/>
<path d="M13.8356 11.7336V13.3356C13.8356 13.7037 13.5368 14.0025 13.1686 14.0025H11.8347C11.4666 14.0025 11.1678 13.7037 11.1678 13.3356V12.1871" stroke="white" stroke-linecap="round" stroke-linejoin="round"/>
<path fill-rule="evenodd" clip-rule="evenodd" d="M14.169 10.8532V9.73405C14.169 8.73964 13.3627 7.9333 12.3683 7.9333H4.63174C3.63733 7.9333 2.83099 8.73964 2.83099 9.73405V10.8532C2.83099 11.5902 3.42791 12.1871 4.16488 12.1871H12.8352C13.5721 12.1871 14.169 11.5895 14.169 10.8532Z" stroke="white" stroke-linecap="round" stroke-linejoin="round"/>
<path d="M4.72046 9.90812L5.83226 10.0749" stroke="white" stroke-linecap="round" stroke-linejoin="round"/>
<path d="M11.2178 10.0749L12.2796 9.90812" stroke="white" stroke-linecap="round" stroke-linejoin="round"/>
</svg>
