<svg id="Layer_1" data-name="Layer 1" xmlns="http://www.w3.org/2000/svg" viewBox="0 0 76.3 50"><defs><style>.cls-1{fill:#303030;}</style></defs><title>Relatório - icons</title><path class="cls-1" d="M75.29,37.36H72.82V23.56A8.13,8.13,0,0,0,71.43,19L65.25,9.87a8.13,8.13,0,0,0-6.73-3.57H48.93a2,2,0,0,0-2,2v29H31.2A8.34,8.34,0,0,1,34,42.48H50.56a8.33,8.33,0,0,1,16.5,0h8.22a1,1,0,0,0,1-1V38.38A1,1,0,0,0,75.29,37.36ZM65.17,20.85H52.52a1,1,0,0,1-1-1v-7a1,1,0,0,1,1-1h7.71a1,1,0,0,1,.83.43l4.94,7A1,1,0,0,1,65.17,20.85Z"/><path class="cls-1" d="M58.82,37.36a6.32,6.32,0,1,0,6.31,6.32A6.32,6.32,0,0,0,58.82,37.36Zm0,9.48A3.16,3.16,0,1,1,62,43.69,3.16,3.16,0,0,1,58.82,46.84Z"/><path class="cls-1" d="M25.76,37.36a6.32,6.32,0,1,0,6.31,6.32A6.32,6.32,0,0,0,25.76,37.36Zm0,9.48a3.16,3.16,0,1,1,3.16-3.16A3.16,3.16,0,0,1,25.76,46.84Z"/><path class="cls-1" d="M6.17,37.36a1,1,0,0,0-1,1v3.09a1,1,0,0,0,1,1H17.52a8.37,8.37,0,0,1,2.8-5.12Z"/><path class="cls-1" d="M41,0H3A3,3,0,0,0,0,3V33.31a1,1,0,0,0,1,1H43a1,1,0,0,0,1-1V3A3,3,0,0,0,41,0Z"/></svg>