<svg id="Layer_1" data-name="Layer 1" xmlns="http://www.w3.org/2000/svg" viewBox="0 0 50 50"><defs><style>.cls-1{fill:#303030;}</style></defs><title>Relatório - icons</title><path class="cls-1" d="M50,25A25,25,0,1,0,25,50,25,25,0,0,0,50,25ZM23.62,42.09a1,1,0,0,1-1-1.08V39.37c0-1.2,0-1.25-1.2-1.42a15,15,0,0,1-4.26-1.21c-1-.52-1.16-.77-.86-1.89.22-.82.43-1.64.69-2.45s.56-1.08,1.42-.6a13.75,13.75,0,0,0,4.69,1.42,5.83,5.83,0,0,0,3.1-.39,2.4,2.4,0,0,0,.56-4.22,6.46,6.46,0,0,0-1.76-1,40.57,40.57,0,0,1-4.82-2.15c-2.45-1.46-4-3.53-3.87-6.5.22-3.4,2.11-5.51,5.25-6.67,1.29-.47,1.29-.43,1.29-1.81V9.08c0-1,.21-1.21,1.21-1.21H25c2.15,0,2.15,0,2.15,2.15,0,1.51,0,1.51,1.5,1.77a13,13,0,0,1,3.36,1,1,1,0,0,1,.64,1.29c-.26.95-.51,1.85-.82,2.8s-.56,1-1.38.6a10.22,10.22,0,0,0-5.29-1,4.12,4.12,0,0,0-1.42.3,2,2,0,0,0-.51,3.57,9.17,9.17,0,0,0,2.28,1.29c1.42.6,2.84,1.16,4.17,1.89a7.5,7.5,0,0,1,2.41,11.45,7.74,7.74,0,0,1-4.17,2.67,1.2,1.2,0,0,0-1,1.33c0,.73,0,1.46,0,2.19a.92.92,0,0,1-1,1c-.65,0-1.46,0-2.24-.08Zm0,0"/></svg>