<svg id="Layer_1" data-name="Layer 1" xmlns="http://www.w3.org/2000/svg" viewBox="0 0 59.21 50"><defs><style>.cls-1{fill:#303030;}</style></defs><title>Relatório - icons</title><path class="cls-1" d="M58.07,35.88a1.15,1.15,0,0,1-1.15-1.15V28.87a1.15,1.15,0,0,0-1.15-1.15H53.62a1.15,1.15,0,0,1-1.14-1.07L51,4.82l-.25-3.75A1.15,1.15,0,0,0,49.61,0H45.25A1.15,1.15,0,0,0,44.1,1.06l-1,13.34-.23,3h0l-.27,3.46-.53,6.83H38.13V12.05L26.76,20v-8L15.4,20v-8l-1.81,1.27h0L4.52,19.68,4,20V34.74a1.15,1.15,0,0,1-1.15,1.15H1.15A1.15,1.15,0,0,0,0,37V48.85A1.15,1.15,0,0,0,1.15,50H58.07a1.15,1.15,0,0,0,1.15-1.15V37A1.15,1.15,0,0,0,58.07,35.88ZM18.56,39.2H9.63V30.95h8.94Zm15.4,0H25V30.95H34Zm15.59,0H40.61V30.95h8.94Z"/></svg>