<svg id="Layer_1" data-name="Layer 1" xmlns="http://www.w3.org/2000/svg" viewBox="0 0 49.75 50"><defs><style>.cls-1{fill:#303030;}</style></defs><title>Relatório - icons</title><path class="cls-1" d="M42.45,7.36a24.8,24.8,0,0,0-35.26,0c-9.39,9.39-9.46,24.12-1,34.17a33.56,33.56,0,0,0,5.91,5l.08.08A25,25,0,0,0,42.45,7.36ZM38.31,38.53a19.11,19.11,0,0,1-23.14,3l-.06-.06a25.65,25.65,0,0,1-4.52-3.81C4.13,30,4.19,18.69,11.36,11.51a19.08,19.08,0,0,1,27,27Z"/><path class="cls-1" d="M29.43,34c-.34.08-.58.34-.93.42a6.46,6.46,0,0,1-1.19.34.92.92,0,0,1-1-.68,2.94,2.94,0,0,1-.08-1.19,22.72,22.72,0,0,1,.42-2.29c.42-2.29.84-4.64,1.27-6.93a6.53,6.53,0,0,0,.16-1.87c0-.76-.5-1.1-1.27-1.1H20.73a2.46,2.46,0,0,0-.76.08.91.91,0,0,0-.76.68.86.86,0,0,0,.59.76,4.53,4.53,0,0,0,1.1.16c.84.08,1.1.42,1.1,1.27v.42c-.34,2-.68,4.06-1.1,6.09-.16,1.19-.34,2.37-.5,3.46a3.4,3.4,0,0,0,2.71,3.46,23.29,23.29,0,0,0,2.37.16,6.05,6.05,0,0,0,4.32-1.95,1.38,1.38,0,0,0,.42-.76.5.5,0,0,0-.78-.54Zm0,0"/><path class="cls-1" d="M25.45,19.19A3.22,3.22,0,0,0,28.67,16a3.29,3.29,0,0,0-3.22-3.3,3.35,3.35,0,0,0-3.3,3.22,3.35,3.35,0,0,0,3.3,3.3Zm0,0"/></svg>