<svg id="Layer_1" data-name="Layer 1" xmlns="http://www.w3.org/2000/svg" viewBox="0 0 49.98 50"><defs><style>.cls-1{fill:#303030;}</style></defs><title>Relatório - icons</title><path class="cls-1" d="M36.71,44.14H13.27a4.4,4.4,0,0,0-4.39,4.39A1.46,1.46,0,0,0,10.34,50h29.3a1.46,1.46,0,0,0,1.46-1.46A4.4,4.4,0,0,0,36.71,44.14Z"/><path class="cls-1" d="M49.92,24.54,44.06,7l0,0s0,0,0-.06a1.46,1.46,0,0,0-1.9-.82,18.39,18.39,0,0,1-12.91.22,4.39,4.39,0,0,0-2.76-3V1.46a1.46,1.46,0,0,0-2.93,0V3.3a4.39,4.39,0,0,0-2.76,3A18.39,18.39,0,0,1,7.86,6.06,1.46,1.46,0,0,0,6,6.88s0,0,0,.06l0,0L.07,24.54a2.32,2.32,0,0,0-.06.6,7.31,7.31,0,0,0,14.62,0,2.24,2.24,0,0,0-.06-.62l-5-14.87a21.06,21.06,0,0,0,5,.64,21.74,21.74,0,0,0,6.41-1,4.4,4.4,0,0,0,1.31,1.6L19.67,35.35H30.31L27.62,10.92a4.4,4.4,0,0,0,1.31-1.6,21.74,21.74,0,0,0,6.41,1,21.06,21.06,0,0,0,5-.64l-5,14.87a2.32,2.32,0,0,0-.06.6,7.31,7.31,0,0,0,14.62,0A2.24,2.24,0,0,0,49.92,24.54Zm-38.77-1H3.49L7.32,12.05ZM25,8.89a1.46,1.46,0,1,1,1.46-1.46A1.47,1.47,0,0,1,25,8.89ZM38.84,23.54l3.83-11.48L46.5,23.54Z"/><path class="cls-1" d="M32.35,38.28H17.63A2.76,2.76,0,0,0,14.87,41a.92.92,0,0,0,.92.92h18.4a.92.92,0,0,0,.92-.92A2.76,2.76,0,0,0,32.35,38.28Z"/></svg>