<svg id="Layer_1" data-name="Layer 1" xmlns="http://www.w3.org/2000/svg" viewBox="0 0 60 50"><defs><style>.cls-1{fill:#303030;}</style></defs><title>Relatório - icons</title><path class="cls-1" d="M7.5,0h-5A2.36,2.36,0,0,0,0,2.5v5A2.37,2.37,0,0,0,2.5,10h5A2.37,2.37,0,0,0,10,7.5v-5A2.37,2.37,0,0,0,7.5,0Zm0,0"/><path class="cls-1" d="M7.5,20h-5A2.37,2.37,0,0,0,0,22.5v5A2.36,2.36,0,0,0,2.5,30h5A2.37,2.37,0,0,0,10,27.5v-5A2.37,2.37,0,0,0,7.5,20Zm0,0"/><path class="cls-1" d="M7.5,40h-5A2.36,2.36,0,0,0,0,42.5v5A2.37,2.37,0,0,0,2.5,50h5A2.37,2.37,0,0,0,10,47.5v-5A2.37,2.37,0,0,0,7.5,40Zm0,0"/><path class="cls-1" d="M57.5,0h-35A2.36,2.36,0,0,0,20,2.5v5A2.36,2.36,0,0,0,22.5,10h35A2.36,2.36,0,0,0,60,7.5v-5A2.36,2.36,0,0,0,57.5,0Zm0,0"/><path class="cls-1" d="M57.5,20h-35A2.36,2.36,0,0,0,20,22.5v5A2.36,2.36,0,0,0,22.5,30h35A2.36,2.36,0,0,0,60,27.5v-5A2.36,2.36,0,0,0,57.5,20Zm0,0"/><path class="cls-1" d="M57.5,40h-35A2.36,2.36,0,0,0,20,42.5v5A2.36,2.36,0,0,0,22.5,50h35A2.36,2.36,0,0,0,60,47.5v-5A2.36,2.36,0,0,0,57.5,40Zm0,0"/></svg>