<svg id="Layer_1" data-name="Layer 1" xmlns="http://www.w3.org/2000/svg" viewBox="0 0 15.78 12.88"><title>sistema</title><path d="M6.44,11.91a.26.26,0,0,1,0-.14s0-.07-.07-.09-.08,0-.08-.06,0,0-.12,0H2.9a1.55,1.55,0,0,1-1.14-.47A1.55,1.55,0,0,1,1.29,10V2.9a1.55,1.55,0,0,1,.47-1.14A1.55,1.55,0,0,1,2.9,1.29H6.12a.31.31,0,0,0,.21-.06.34.34,0,0,0,.1-.2,1.81,1.81,0,0,0,0-.24,2.33,2.33,0,0,0,0-.27c0-.11,0-.17,0-.2A.31.31,0,0,0,6.34.09.32.32,0,0,0,6.12,0H2.9a2.79,2.79,0,0,0-2,.85A2.79,2.79,0,0,0,0,2.9V10a2.79,2.79,0,0,0,.85,2,2.79,2.79,0,0,0,2,.85H6.12a.3.3,0,0,0,.21-.07.34.34,0,0,0,.1-.2,1.86,1.86,0,0,0,0-.24,2.3,2.3,0,0,0,0-.27c0-.11,0-.18,0-.2Zm0,0"/><path d="M15.58,6,10.11.51a.63.63,0,0,0-.91,0A.62.62,0,0,0,9,1v2.9H4.51a.65.65,0,0,0-.64.64V8.37A.65.65,0,0,0,4.51,9H9v2.9a.64.64,0,0,0,1.1.45l5.47-5.47a.63.63,0,0,0,0-.91Zm0,0"/></svg>