<svg id="Layer_1" data-name="Layer 1" xmlns="http://www.w3.org/2000/svg" viewBox="0 0 56.25 50"><defs><style>.cls-1{fill:#303030;fill-rule:evenodd;}</style></defs><title>Relatório - icons</title><path class="cls-1" d="M55.62,43,32.19,2.35a4.68,4.68,0,0,0-8.12,0L.63,43a4.69,4.69,0,0,0,4.06,7H51.56a4.69,4.69,0,0,0,4.07-7ZM4.68,45.31,28.12,4.68h0L51.56,45.31ZM28.12,34.38a3.12,3.12,0,1,0,3.13,3.12,3.12,3.12,0,0,0-3.13-3.12ZM25,20.31a3.14,3.14,0,0,0,0,.53L26.58,30a1.56,1.56,0,0,0,3.08,0l1.54-9.12a3,3,0,0,0,0-.53,3.12,3.12,0,0,0-6.25,0Zm0,0"/></svg>