<svg id="Layer_1" data-name="Layer 1" xmlns="http://www.w3.org/2000/svg" viewBox="0 0 40.62 50"><defs><style>.cls-1{fill:#303030;}</style></defs><title>Relatório - icons</title><path class="cls-1" d="M40.62,34.61V39.3a4.69,4.69,0,0,1-3.34,4.49V10.7a7.37,7.37,0,0,0-7.36-7.36H6.21A4.69,4.69,0,0,1,10.7,0H35.93a4.69,4.69,0,0,1,4.69,4.69Z"/><path class="cls-1" d="M22.86,31q-2,0-2,3.11a4.83,4.83,0,0,0,.49,2.41,1.46,1.46,0,0,0,1.28.85q2.06,0,2.06-3.24T22.86,31Z"/><path class="cls-1" d="M29.91,6H4.69A4.69,4.69,0,0,0,0,10.7V45.31A4.69,4.69,0,0,0,4.69,50H29.92a4.69,4.69,0,0,0,4.69-4.69V10.7A4.69,4.69,0,0,0,29.91,6ZM7,21.58a5.51,5.51,0,0,1,1.39-3.89A4.64,4.64,0,0,1,12,16.19a4.26,4.26,0,0,1,3.42,1.5,6.29,6.29,0,0,1,1.27,4.19,5.84,5.84,0,0,1-1.34,4,4.45,4.45,0,0,1-3.49,1.52Q7,27.42,7,21.58ZM8.69,39.82,23.05,16.19H26.1L11.76,39.82ZM26.26,38.3a4.44,4.44,0,0,1-3.49,1.52Q18,39.82,18,34a5.51,5.51,0,0,1,1.39-3.89,4.64,4.64,0,0,1,3.57-1.51,4.26,4.26,0,0,1,3.42,1.5,6.26,6.26,0,0,1,1.27,4.18A5.87,5.87,0,0,1,26.26,38.3Z"/><path class="cls-1" d="M13.74,21.76q0-3.13-1.83-3.13-2,0-2,3.11a4.76,4.76,0,0,0,.5,2.41,1.46,1.46,0,0,0,1.27.85Q13.74,25,13.74,21.76Z"/></svg>