<svg id="Layer_1" data-name="Layer 1" xmlns="http://www.w3.org/2000/svg" viewBox="0 0 40.62 50"><defs><style>.cls-1{fill:#303030;}</style></defs><title>Relatório - icons</title><path class="cls-1" d="M40.62,34.61V39.3a4.69,4.69,0,0,1-3.34,4.49V10.7a7.37,7.37,0,0,0-7.36-7.36H6.21A4.69,4.69,0,0,1,10.7,0H35.93a4.69,4.69,0,0,1,4.69,4.69Z"/><path class="cls-1" d="M29.91,6H4.69A4.69,4.69,0,0,0,0,10.7V45.31A4.69,4.69,0,0,0,4.69,50H29.92a4.69,4.69,0,0,0,4.69-4.69V10.7A4.69,4.69,0,0,0,29.91,6Zm-.59,35.43h-24V38h24Zm0-7.74h-24V30.21h24Zm0-7.74h-24V22.47h24Zm0-7.74h-24V14.73h24Z"/></svg>