<svg id="Layer_1" data-name="Layer 1" xmlns="http://www.w3.org/2000/svg" viewBox="0 0 50 50"><defs><style>.cls-1{fill:#303030;}</style></defs><title>Relatório - icons</title><path class="cls-1" d="M18.27,27.43c-5.19-.94-6.5-6-6.55-6.19a2,2,0,0,0-3.9.91c.08.32,1.91,7.8,9.74,9.22a2.21,2.21,0,0,0,.36,0,2,2,0,0,0,.36-4Zm0,0"/><path class="cls-1" d="M41.42,32.93a3,3,0,0,0-4.24,0L35.1,30.85a19.37,19.37,0,1,0-4.25,4.25l2.07,2.07a3,3,0,0,0,0,4.25l7.64,7.64a3.2,3.2,0,0,0,4.52,0l4-4a3.19,3.19,0,0,0,0-4.53Zm-22-.1A13.41,13.41,0,0,1,9.94,9.93a13.41,13.41,0,0,1,19,19,13.31,13.31,0,0,1-9.48,3.93Zm0,0"/><path class="cls-1" d="M12.15,15.69a2,2,0,1,1-2-2,2,2,0,0,1,2,2Zm0,0"/></svg>