<svg id="Layer_1" data-name="Layer 1" xmlns="http://www.w3.org/2000/svg" viewBox="0 0 40.4 50"><defs><style>.cls-1{fill:#303030;}</style></defs><title>Relatório - icons</title><circle class="cls-1" cx="20.27" cy="11.81" r="11.81"/><path class="cls-1" d="M40.4,33.37c0-1.56-5.33-8.93-11.73-8.93-1.86,0-4,2.78-8.44,2.78s-6.61-2.78-8.47-2.78C5.66,24.44.52,31.11,0,33.1H0v.05a1.32,1.32,0,0,0,0,.23s0,.1,0,.15,0,.26,0,.39v12.3l0,.19.85.27A69.08,69.08,0,0,0,21.51,50c11.15,0,17.62-3.18,18-3.38l.79-.4h.08V33.91c0-.13,0-.26,0-.39S40.4,33.42,40.4,33.37Z"/></svg>