<svg id="Layer_1" data-name="Layer 1" xmlns="http://www.w3.org/2000/svg" viewBox="0 0 50 50"><defs><style>.cls-1{fill:#303030;}</style></defs><title>Relatório - icons</title><path class="cls-1" d="M25,0A25,25,0,1,0,50,25,25,25,0,0,0,25,0Zm0,46.45A21.45,21.45,0,1,1,46.45,25,21.45,21.45,0,0,1,25,46.45Z"/><path class="cls-1" d="M30.14,25.58h0L29.6,25l5.26-5.26a1.63,1.63,0,0,0,0-2.29l-2.29-2.29a1.63,1.63,0,0,0-2.29,0l-4.69,4.7h0L25,20.4l-5.26-5.26a1.63,1.63,0,0,0-2.29,0l-2.29,2.29a1.63,1.63,0,0,0,0,2.29l4.7,4.69h0l.56.56-5.26,5.26a1.63,1.63,0,0,0,0,2.29l2.29,2.29a1.63,1.63,0,0,0,2.29,0l4.69-4.7h0L25,29.6l5.26,5.26a1.63,1.63,0,0,0,2.29,0l2.29-2.29a1.63,1.63,0,0,0,0-2.29Z"/></svg>