<?xml version="1.0" standalone="no"?>
<!DOCTYPE svg PUBLIC "-//W3C//DTD SVG 20010904//EN"
 "http://www.w3.org/TR/2001/REC-SVG-20010904/DTD/svg10.dtd">
<svg version="1.0" xmlns="http://www.w3.org/2000/svg"
 width="1192.000000pt" height="1194.000000pt" viewBox="0 0 1192.000000 1194.000000"
 preserveAspectRatio="xMidYMid meet">

<g transform="translate(0.000000,1194.000000) scale(0.100000,-0.100000)"
fill="#000000" stroke="none">
<path d="M6220 11909 c0 -6 -11 -102 -24 -213 -44 -362 -49 -416 -38 -429 5
-6 34 -55 65 -107 30 -52 123 -211 206 -353 102 -176 151 -268 151 -288 0 -20
-9 -39 -26 -54 -34 -31 -60 -31 -304 -1 -102 13 -188 21 -191 17 -6 -6 -50
-373 -46 -378 11 -10 458 -54 522 -51 248 13 451 250 432 503 -6 83 -39 175
-94 265 -22 36 -51 85 -65 110 -31 54 -173 297 -363 620 -76 129 -156 265
-177 303 -40 67 -48 77 -48 56z"/>
<path d="M4987 11723 c23 -227 43 -448 43 -478 0 -22 11 -43 38 -71 20 -22 55
-61 76 -85 22 -24 81 -89 131 -144 359 -392 345 -375 345 -409 0 -22 -9 -40
-28 -59 -25 -24 -40 -28 -138 -37 -60 -6 -127 -12 -149 -15 -22 -2 -73 -8
-113 -11 -40 -4 -74 -10 -76 -13 -5 -7 31 -371 36 -377 6 -6 433 34 491 46
189 39 342 217 363 422 15 152 -36 275 -175 423 -37 39 -105 113 -151 165 -47
52 -112 124 -145 160 -33 36 -78 85 -101 110 -22 25 -94 104 -160 175 -66 72
-157 172 -203 223 -46 50 -87 92 -90 92 -4 0 -1 -53 6 -117z"/>
<path d="M7354 11434 l-102 -304 134 -402 c74 -222 134 -409 134 -416 0 -7 -7
-26 -15 -42 -28 -55 -64 -52 -287 24 -109 37 -204 69 -211 72 -8 3 -32 -53
-72 -173 -33 -98 -60 -182 -60 -186 0 -4 101 -42 225 -84 194 -66 237 -77 312
-81 141 -7 257 38 356 139 105 107 159 272 132 405 -11 58 -427 1333 -439
1346 -3 3 -52 -130 -107 -298z"/>
<path d="M3773 11503 c5 -8 71 -215 147 -463 43 -138 48 -146 120 -195 190
-129 617 -446 629 -466 16 -30 10 -66 -17 -95 -12 -12 -94 -43 -226 -84 -114
-35 -209 -67 -212 -72 -4 -6 101 -356 109 -365 2 -1 106 31 233 71 298 93 354
126 433 250 93 148 102 316 26 472 -39 81 -115 158 -230 237 -39 25 -83 57
-100 70 -16 13 -106 77 -198 143 -93 65 -198 141 -235 167 -37 26 -78 55 -92
65 -14 9 -32 22 -40 29 -41 32 -340 243 -345 243 -4 0 -4 -3 -2 -7z"/>
<path d="M8555 11182 c-38 -64 -111 -188 -163 -274 l-94 -157 11 -93 c34 -287
81 -727 81 -751 0 -39 -40 -77 -81 -77 -34 0 -41 4 -265 136 -77 46 -145 84
-151 84 -9 0 -188 -292 -195 -319 -4 -13 390 -245 462 -272 61 -23 175 -27
255 -9 171 38 321 196 357 377 11 58 5 194 -18 358 -2 17 -10 93 -19 170 -19
177 -52 474 -65 585 -5 47 -12 108 -15 135 -14 129 -25 218 -28 221 -1 2 -34
-50 -72 -114z"/>
<path d="M2670 10925 c0 -3 13 -26 29 -52 36 -61 243 -428 264 -470 12 -22 30
-36 64 -49 27 -10 78 -33 116 -51 37 -18 70 -33 73 -33 3 0 20 -6 37 -14 18
-8 138 -61 267 -117 129 -56 242 -108 252 -116 23 -21 31 -61 17 -94 -11 -29
-25 -38 -284 -184 -66 -37 -122 -69 -123 -71 -6 -4 182 -334 191 -334 17 0
421 236 459 269 76 65 143 198 151 298 7 87 -10 182 -47 259 -61 128 -130 187
-317 267 -57 25 -198 87 -314 137 -115 51 -298 130 -405 177 -107 47 -213 93
-235 103 -61 27 -187 80 -191 80 -2 0 -4 -2 -4 -5z"/>
<path d="M9611 10556 c-35 -39 -96 -105 -135 -146 -39 -41 -108 -115 -152
-165 l-81 -90 -6 -70 c-3 -38 -22 -230 -42 -425 l-36 -355 -29 -27 c-56 -52
-72 -44 -258 130 -132 124 -166 152 -179 151 -12 -1 -248 -263 -248 -275 0
-11 271 -265 347 -326 81 -65 163 -91 283 -92 70 0 103 5 150 23 141 53 237
145 293 279 23 53 25 70 112 932 11 107 27 268 36 358 9 89 15 164 13 166 -2
2 -33 -29 -68 -68z"/>
<path d="M1711 10132 c2 -5 97 -115 211 -243 l208 -234 162 -33 c629 -127 681
-139 700 -162 10 -13 18 -38 18 -61 0 -37 -6 -43 -170 -189 -93 -83 -170 -154
-170 -157 0 -8 33 -48 145 -174 l106 -119 167 149 c93 82 185 167 205 190 119
132 143 352 57 521 -55 108 -168 203 -277 235 -45 13 -382 84 -808 170 -342
69 -523 106 -539 111 -10 4 -17 2 -15 -4z"/>
<path d="M10490 9700 c-36 -27 -108 -78 -160 -114 -52 -37 -137 -97 -189 -134
-107 -76 -87 -39 -185 -347 -145 -457 -170 -532 -187 -550 -13 -13 -32 -20
-60 -20 -50 0 -53 3 -210 227 l-110 158 -72 -51 c-40 -28 -111 -78 -159 -112
-78 -54 -86 -63 -75 -79 275 -392 311 -434 406 -482 237 -120 528 -25 645 210
13 27 50 130 81 229 31 99 75 236 97 305 50 159 116 363 134 415 12 38 104
324 118 373 10 31 0 27 -74 -28z"/>
<path d="M1141 9160 l-213 -5 48 -34 c53 -38 326 -239 412 -304 l53 -40 433 2
434 2 26 -23 c19 -16 27 -33 28 -59 1 -32 -15 -59 -127 -210 -70 -95 -128
-179 -129 -187 -1 -8 66 -65 148 -125 l149 -111 24 29 c112 143 259 351 283
400 59 120 58 270 -3 399 -60 127 -150 207 -282 251 l-79 27 -496 -4 c-272 -1
-591 -5 -709 -8z"/>
<path d="M10970 8590 c-151 -65 -284 -125 -295 -133 -11 -8 -29 -32 -40 -53
-11 -22 -47 -86 -81 -144 -34 -58 -77 -132 -95 -165 -184 -328 -215 -378 -247
-393 -31 -15 -36 -15 -70 3 -33 19 -42 35 -123 223 -47 111 -88 205 -91 207
-4 4 -343 -137 -353 -147 -3 -3 4 -22 14 -44 10 -21 51 -115 91 -209 82 -193
99 -225 149 -279 88 -94 210 -147 345 -148 137 -1 252 47 345 142 44 44 75 93
214 340 32 58 62 110 67 115 4 6 22 36 39 68 18 32 93 165 168 295 75 130 154
269 176 307 22 39 48 85 59 103 11 17 16 32 11 31 -4 0 -132 -54 -283 -119z"/>
<path d="M1610 8316 c-52 -12 -149 -35 -215 -49 -66 -15 -228 -51 -360 -80
-132 -30 -330 -74 -440 -97 -110 -24 -203 -46 -207 -49 -4 -4 27 -22 70 -41
42 -19 128 -58 190 -87 62 -29 115 -53 117 -53 2 0 46 -20 98 -45 l96 -44 263
59 c633 141 583 132 622 106 50 -32 45 -67 -34 -242 -40 -87 -81 -177 -91
-198 -10 -22 -19 -45 -19 -51 0 -14 341 -168 350 -158 18 20 193 425 207 478
31 121 -3 279 -83 382 -57 74 -112 118 -194 156 -56 26 -79 30 -170 33 -85 3
-123 -1 -200 -20z"/>
<path d="M11389 7487 l-306 -62 -98 -110 c-53 -61 -114 -128 -134 -150 -20
-22 -106 -118 -190 -212 -85 -95 -161 -173 -170 -174 -101 -7 -102 -5 -182
416 -7 33 -15 63 -18 66 -3 4 -89 -10 -191 -30 -166 -34 -185 -39 -183 -57 1
-10 23 -120 48 -244 54 -270 75 -319 170 -409 65 -60 129 -101 160 -101 8 0
15 -4 15 -10 0 -6 -47 -10 -121 -10 l-121 0 4 -262 c4 -233 7 -269 25 -319 46
-124 128 -216 247 -275 72 -35 87 -39 177 -42 109 -5 167 6 242 44 37 18 1088
797 1141 845 6 5 -133 9 -315 9 l-324 0 -338 -255 c-186 -140 -347 -257 -356
-260 -24 -7 -61 8 -86 35 -19 21 -20 36 -20 244 l0 221 25 3 c66 6 140 27 194
54 65 33 120 85 284 269 62 70 123 138 135 151 12 14 54 60 93 104 107 120
255 285 392 437 67 75 122 138 122 141 0 8 27 13 -321 -57z"/>
<path d="M1395 7423 c-43 -10 -103 -33 -175 -66 -164 -76 -445 -205 -590 -270
-30 -13 -84 -38 -120 -55 -170 -79 -423 -192 -431 -192 -5 0 -9 -3 -9 -8 0 -4
48 -18 108 -30 59 -13 199 -44 311 -69 l204 -45 386 176 c213 97 397 176 409
176 34 0 60 -17 77 -49 13 -27 11 -44 -34 -247 -27 -121 -46 -222 -42 -226 7
-7 364 -88 369 -83 2 2 17 63 33 136 16 74 36 162 44 196 8 34 19 94 25 134
39 275 -193 532 -474 528 -39 -1 -80 -3 -91 -6z"/>
<path d="M1300 6468 c-88 -14 -165 -57 -356 -198 -214 -159 -352 -262 -659
-490 -126 -94 -239 -177 -250 -185 -17 -12 10 -14 215 -15 129 -1 274 -3 321
-5 l85 -5 295 220 c397 296 407 303 444 296 16 -3 40 -17 53 -32 21 -24 22
-31 22 -255 l0 -229 193 0 193 0 2 233 c3 259 -3 311 -50 407 -90 184 -301
292 -508 258z"/>
<path d="M10027 5308 c-60 -287 -61 -291 -47 -368 43 -241 261 -415 500 -397
97 7 136 22 435 162 138 64 275 128 305 142 281 130 636 296 642 302 4 3 -134
36 -307 73 l-314 66 -383 -179 c-211 -98 -394 -179 -408 -179 -32 0 -69 25
-80 56 -7 17 4 84 37 243 26 121 45 222 42 225 -6 6 -337 76 -359 76 -14 0
-25 -36 -63 -222z"/>
<path d="M1372 5509 c-69 -13 -170 -69 -226 -123 -28 -28 -87 -92 -131 -142
-187 -213 -578 -656 -677 -768 -59 -66 -105 -122 -104 -123 4 -4 597 116 617
125 9 4 36 30 60 58 87 101 465 529 496 561 35 37 78 43 118 17 29 -19 32 -29
81 -271 20 -103 40 -191 43 -195 3 -4 89 10 191 31 165 34 185 40 183 57 -1
10 -22 117 -47 238 -52 254 -79 320 -158 399 -120 120 -280 169 -446 136z"/>
<path d="M9798 4473 c-119 -270 -118 -268 -118 -368 0 -133 35 -225 120 -318
97 -106 211 -157 351 -157 78 0 133 10 384 70 44 11 289 67 545 125 256 58
472 108 480 111 12 4 -303 151 -517 241 l-62 26 -403 -93 c-222 -51 -416 -92
-433 -92 -37 1 -75 42 -75 81 0 16 38 115 85 220 47 106 86 197 88 203 1 8
-331 168 -348 168 -1 0 -45 -98 -97 -217z"/>
<path d="M1616 4580 c-75 -27 -151 -76 -197 -127 -43 -47 -75 -102 -352 -593
-85 -151 -177 -315 -205 -365 -27 -49 -77 -138 -110 -197 -33 -60 -59 -108
-58 -108 5 0 72 29 142 60 35 17 66 30 69 30 2 0 41 17 87 38 46 21 129 58
186 82 l102 43 68 121 c38 67 133 234 211 373 79 139 149 257 157 263 25 22
83 16 108 -11 13 -13 61 -109 106 -214 45 -104 85 -194 89 -198 4 -4 41 7 82
26 41 19 118 53 172 77 53 23 97 45 97 49 0 4 -27 70 -61 147 -34 76 -74 171
-90 209 -58 139 -137 223 -264 282 -52 24 -75 28 -170 30 -91 3 -120 0 -169
-17z"/>
<path d="M9412 3722 c-71 -97 -141 -195 -155 -218 -80 -129 -77 -338 8 -478
61 -101 170 -184 285 -217 34 -9 141 -12 440 -10 217 2 406 5 420 6 14 2 157
4 318 4 160 1 292 4 292 9 -1 4 -115 90 -255 192 l-255 184 -362 -2 c-200 -2
-392 -5 -428 -8 -61 -6 -68 -4 -98 21 -25 21 -32 34 -32 63 0 31 20 65 130
216 72 98 130 181 130 185 0 6 -69 58 -256 193 l-52 38 -130 -178z"/>
<path d="M2119 3752 c-128 -34 -240 -125 -299 -242 -15 -30 -62 -167 -104
-305 -43 -137 -84 -268 -91 -290 -8 -22 -44 -137 -80 -255 -37 -118 -75 -240
-85 -270 -32 -94 -72 -232 -68 -234 1 -2 120 81 262 184 l260 187 21 74 c12
41 62 200 110 354 48 154 94 303 102 330 23 78 74 111 135 87 9 -4 75 -88 146
-187 71 -99 134 -180 141 -180 6 0 78 49 161 108 l150 108 -51 72 c-28 40 -96
136 -152 212 -112 152 -171 204 -277 239 -79 27 -200 30 -281 8z"/>
<path d="M8848 3035 c-191 -171 -235 -223 -267 -315 -62 -177 -19 -363 115
-498 101 -101 125 -109 624 -207 239 -47 547 -108 684 -135 137 -28 251 -50
253 -50 4 0 -180 208 -291 330 -28 30 -70 77 -94 103 l-43 48 -421 83 c-396
78 -423 85 -445 110 -47 56 -33 83 117 216 63 57 137 123 163 147 l48 45 -77
86 c-43 48 -101 113 -130 144 l-53 58 -183 -165z"/>
<path d="M2729 3026 c-78 -27 -139 -67 -195 -128 -86 -93 -117 -175 -134 -353
-6 -60 -28 -303 -50 -540 -22 -236 -46 -495 -54 -575 -8 -80 -13 -146 -12
-147 1 -1 54 55 117 125 64 70 161 177 217 238 l101 111 16 179 c54 618 61
673 85 699 17 18 34 25 62 25 35 0 51 -12 202 -150 91 -82 169 -150 174 -150
9 0 255 265 259 278 3 15 -368 339 -419 364 -106 54 -254 64 -369 24z"/>
<path d="M8172 2498 c-218 -125 -279 -172 -328 -254 -86 -146 -88 -341 -4
-489 33 -57 106 -131 165 -167 42 -26 1285 -561 1291 -556 1 2 -68 127 -155
278 l-158 275 -388 167 c-213 91 -397 175 -408 187 -27 27 -28 85 -1 111 10
10 102 66 203 124 101 58 186 108 188 110 4 3 -171 313 -186 328 -4 4 -102
-47 -219 -114z"/>
<path d="M3605 2483 c-199 -28 -360 -170 -410 -358 -20 -79 -19 -120 10 -363
34 -290 42 -353 65 -552 11 -96 31 -266 44 -378 13 -112 26 -205 28 -208 3 -2
56 85 119 194 63 108 135 233 161 277 30 49 46 87 43 100 -5 18 -29 224 -55
465 -6 47 -14 123 -20 170 -25 202 -25 203 2 234 40 47 75 40 218 -44 235
-137 261 -152 264 -149 2 2 46 77 99 167 l96 162 -37 23 c-127 80 -384 223
-427 237 -54 19 -151 30 -200 23z"/>
<path d="M7420 2122 c-282 -92 -289 -96 -357 -157 -113 -102 -163 -212 -163
-359 0 -179 71 -302 245 -424 44 -31 193 -135 330 -232 138 -98 356 -252 485
-343 129 -91 236 -165 237 -163 1 1 -36 121 -83 266 -47 146 -91 283 -98 304
-11 36 -30 52 -187 162 -601 423 -539 374 -539 424 0 65 16 75 245 149 203 66
210 70 208 94 -2 32 -104 347 -112 346 -3 0 -98 -31 -211 -67z"/>
<path d="M4400 2072 c-143 -48 -231 -123 -293 -251 -39 -82 -42 -91 -45 -191
l-3 -105 176 -520 c272 -802 274 -808 278 -812 2 -2 49 134 105 303 l100 306
-15 42 c-8 22 -70 205 -138 405 -119 349 -123 365 -110 397 15 36 41 54 77 54
13 0 117 -31 230 -69 l207 -69 60 181 c34 100 58 184 53 188 -4 4 -106 40
-227 80 -195 64 -230 72 -310 76 -68 2 -103 -1 -145 -15z"/>
<path d="M6630 1909 c-41 -5 -133 -16 -203 -23 -109 -13 -140 -20 -200 -49
-122 -59 -209 -161 -249 -290 -16 -56 -19 -85 -15 -160 3 -51 10 -108 16 -128
17 -54 80 -151 141 -217 30 -32 105 -112 165 -177 61 -66 171 -185 245 -265
74 -80 209 -225 299 -323 90 -97 166 -176 167 -174 2 1 -12 145 -30 318 l-32
316 -284 308 c-157 169 -290 317 -297 329 -15 29 -6 70 22 96 21 19 49 25 245
45 121 12 223 25 226 28 3 3 -3 87 -13 188 l-18 184 -55 1 c-30 1 -89 -2 -130
-7z"/>
<path d="M5350 1872 c-201 -53 -348 -239 -351 -446 -2 -126 23 -199 118 -351
27 -44 52 -85 54 -90 4 -9 130 -222 468 -787 58 -98 109 -178 113 -178 5 0 8
12 8 28 0 15 14 156 31 314 l31 288 -24 42 c-14 24 -103 174 -198 333 -225
375 -226 376 -210 415 25 61 44 64 292 36 123 -13 224 -23 225 -22 5 5 45 377
41 381 -5 5 -464 55 -502 54 -17 0 -60 -8 -96 -17z"/>
</g>
</svg>
