<svg id="Layer_1" data-name="Layer 1" xmlns="http://www.w3.org/2000/svg" viewBox="0 0 50 50"><defs><style>.cls-1,.cls-2{fill:#303030;}.cls-2{fill-rule:evenodd;}</style></defs><title>Relatório - icons</title><path class="cls-1" d="M25,0A25,25,0,1,0,50,25,25,25,0,0,0,25,0Zm0,46.45A21.45,21.45,0,1,1,46.45,25,21.45,21.45,0,0,1,25,46.45Z"/><path class="cls-2" d="M25,31.55a3.74,3.74,0,1,0,3.74,3.74A3.73,3.73,0,0,0,25,31.55Z"/><path class="cls-2" d="M21.26,14.7a3.67,3.67,0,0,0,.05.64l1.84,10.91a1.87,1.87,0,0,0,3.69,0l1.85-10.91a3.62,3.62,0,0,0,.05-.64,3.74,3.74,0,0,0-7.48,0Z"/></svg>