<svg id="Layer_1" data-name="Layer 1" xmlns="http://www.w3.org/2000/svg" viewBox="0 0 99.18 50"><defs><style>.cls-1{fill:#303030;}</style></defs><title>Relatório - icons</title><path class="cls-1" d="M97.4,30.92V20.3a1.77,1.77,0,0,0-1.21-1.68l-10-3.33C82.44,8.91,77.26,2.85,65.83.84h-.06C44.66-2.09,33.53,2.68,23.35,15c-7.57.11-12.95,1.69-17.49,4.6A8.67,8.67,0,0,0,2,26.53l-.21,4.4A1.77,1.77,0,0,0,0,32.69v7.08a1.77,1.77,0,0,0,1.77,1.77H6.49a1.78,1.78,0,0,0,1.77-1.79v0a12.4,12.4,0,0,1,24.79,0,1.61,1.61,0,0,0,1.77,1.77H62a1.78,1.78,0,0,0,1.77-1.79v0a12.4,12.4,0,0,1,24.79,0,1.61,1.61,0,0,0,1.77,1.77H97.4a1.77,1.77,0,0,0,1.77-1.77V32.69A1.77,1.77,0,0,0,97.4,30.92ZM49.59,14.1a.89.89,0,0,1-.89.89H30.33a.89.89,0,0,1-.59-1.56C35.89,7.83,39,4.62,48.61,3.77a.9.9,0,0,1,1,.89Zm21.28,0A.89.89,0,0,1,70,15H54a.89.89,0,0,1-.89-.89V4.43A.89.89,0,0,1,54,3.54a81.46,81.46,0,0,1,11.24.8,29.84,29.84,0,0,1,5.11,1.35.89.89,0,0,1,.57.85Zm9.24.88H75.29a.89.89,0,0,1-.89-.89l0-4.8a.89.89,0,0,1,1.43-.7,23.42,23.42,0,0,1,4.93,5A.89.89,0,0,1,80.11,15Z"/><path class="cls-1" d="M76.15,29.56A10.22,10.22,0,1,0,86.37,39.78,10.23,10.23,0,0,0,76.15,29.56Zm0,15a4.79,4.79,0,1,1,4.79-4.79A4.8,4.8,0,0,1,76.15,44.57Z"/><path class="cls-1" d="M20.66,29.56A10.22,10.22,0,1,0,30.88,39.78,10.23,10.23,0,0,0,20.66,29.56Zm0,15a4.79,4.79,0,1,1,4.79-4.79A4.8,4.8,0,0,1,20.66,44.57Z"/></svg>