<?xml version="1.0" encoding="utf-8"?>
<!-- Generator: Adobe Illustrator 16.0.0, SVG Export Plug-In . SVG Version: 6.00 Build 0)  -->
<!DOCTYPE svg PUBLIC "-//W3C//DTD SVG 1.1//EN" "http://www.w3.org/Graphics/SVG/1.1/DTD/svg11.dtd">
<svg version="1.1" id="Layer_1" xmlns="http://www.w3.org/2000/svg" xmlns:xlink="http://www.w3.org/1999/xlink" x="0px" y="0px"
	 width="76.681px" height="54.275px" viewBox="466.941 155.036 76.681 54.275"
	 enable-background="new 466.941 155.036 76.681 54.275" xml:space="preserve">
<path fill="#303030" d="M543.189,171.832c-0.375-0.459-0.938-0.727-1.523-0.727h-7.47c-1.841-4.854-4.236-9.619-6.958-11.412
	c-9.436-6.209-34.469-6.209-43.901,0c-2.726,1.793-5.119,6.559-6.974,11.412h-7.459c-0.594,0-1.149,0.268-1.524,0.727
	c-0.373,0.461-0.517,1.055-0.398,1.639l1.109,5.352c0.182,0.91,0.985,1.563,1.918,1.563h2.215c-2.14,2.463-3.174,5.572-3.183,8.668
	c-0.02,3.834,1.437,7.297,4.103,9.75c0.029,0.02,0.059,0.049,0.086,0.066v7.498c0,1.619,1.313,2.943,2.943,2.943h6.885
	c1.619,0,2.945-1.324,2.945-2.943v-3.01h38.567v3.01c0,1.619,1.314,2.943,2.945,2.943h6.885c1.619,0,2.941-1.324,2.941-2.943v-7.354
	c2.817-2.578,4.17-6.135,4.188-9.691c0.011-3.203-1.073-6.424-3.337-8.938h2.361c0.93,0,1.735-0.652,1.926-1.563l1.104-5.353
	C543.697,172.886,543.555,172.292,543.189,171.832L543.189,171.832z M486.576,164.611c7.517-4.943,29.902-4.943,37.41,0
	c1.469,0.961,3.346,4.832,5.062,9.578h-47.533C483.23,169.443,485.107,165.572,486.576,164.611L486.576,164.611z M477.764,189.791
	c0-3.191,2.6-5.789,5.791-5.789c3.201,0,5.801,2.598,5.801,5.789c0,3.201-2.6,5.801-5.801,5.801
	C480.363,195.591,477.764,192.992,477.764,189.791L477.764,189.791z M527.082,195.591c-3.19,0-5.79-2.6-5.79-5.801
	c0-3.191,2.6-5.789,5.79-5.789c3.205,0,5.802,2.598,5.802,5.789C532.884,192.992,530.287,195.591,527.082,195.591L527.082,195.591z"
	/>
</svg>
