<svg id="Layer_1" data-name="Layer 1" xmlns="http://www.w3.org/2000/svg" viewBox="0 0 49.12 50"><defs><style>.cls-1{fill:#303030;}</style></defs><title>Relatório - icons</title><path class="cls-1" d="M49,20.06c-.31-2.74-7.68,0-7.68,0l-.43,3.89c-.17-.09-.32-.18-.5-.25l-1.86-8.12A7.5,7.5,0,0,0,30.67,9H19.75a9.77,9.77,0,0,1-.31,1.32h12a5.45,5.45,0,0,1,5.38,4.23l2,8-.38,0H15.24v7.81H29.59v1.75H15.25v.51h14.2v1.75H15.25v6.56H30.57V45.1c0,1.69,2.09,3.06,4.67,3.06s4.66-1.37,4.66-3.06V40.47a5.31,5.31,0,0,0,3.73-4.77V28.26a5,5,0,0,0-2.36-4.07L49,23.78a10.57,10.57,0,0,0,0-3.72ZM40.14,34.25H31.73v-4h8.41Zm0,0"/><path class="cls-1" d="M18.09,7.84A9,9,0,0,0,13.54,0V7.24L9,9.84l-4.5-2.6V0A9,9,0,0,0,5,15.91V45.73a4.27,4.27,0,0,0,8.54,0l0-30a9.05,9.05,0,0,0,4.61-7.88ZM10.17,47.62a1.63,1.63,0,1,1,0-2.31,1.63,1.63,0,0,1,0,2.31Zm0,0"/></svg>