<svg id="Layer_1" data-name="Layer 1" xmlns="http://www.w3.org/2000/svg" viewBox="0 0 50.92 50"><defs><style>.cls-1{fill:#303030;}</style></defs><title>Relatório - icons</title><path class="cls-1" d="M43.42,0H7.5A7.5,7.5,0,0,0,0,7.5v35A7.5,7.5,0,0,0,7.5,50H43.42a7.5,7.5,0,0,0,7.5-7.5V7.5A7.5,7.5,0,0,0,43.42,0Zm1.94,38.68a5.86,5.86,0,0,1-5.86,5.86H11.42a5.86,5.86,0,0,1-5.86-5.86V11.32a5.86,5.86,0,0,1,5.86-5.86H39.49a5.86,5.86,0,0,1,5.86,5.86Z"/><path class="cls-1" d="M42.08,15.43l-3-3a2.15,2.15,0,0,0-3,0L21.43,27l-6.54-6.57a2.15,2.15,0,0,0-3,0l-3,3a2.15,2.15,0,0,0,0,3l8.06,8.06,3,3a2.15,2.15,0,0,0,3,0l3-3L42.08,18.46a2.15,2.15,0,0,0,0-3Zm0,0"/></svg>