<?xml version="1.0" encoding="UTF-8"?><svg id="a" xmlns="http://www.w3.org/2000/svg" viewBox="0 0 227.49 195.67"><path d="M147.4,0L65.57,61.6c-4.66,3.53-9.13,2.19-11.38,1.07-2.25-1.11-6.02-3.86-6.02-9.71V0H0V52.97c0,22.57,12.56,42.82,32.77,52.85,8.39,4.17,17.39,6.22,26.32,6.22,12.59,0,25.05-4.07,35.51-12.01L227.49,0h-80.08Z"/><path d="M80.08,195.66l81.84-61.6c4.66-3.54,9.13-2.19,11.38-1.08,2.25,1.12,6.02,3.86,6.02,9.71v52.96h48.16v-52.96c0-22.57-12.56-42.82-32.77-52.85-8.39-4.17-17.39-6.22-26.32-6.22-12.59,0-25.05,4.07-35.51,12.01L0,195.66H80.08Z"/></svg>