<svg id="Layer_1" data-name="Layer 1" xmlns="http://www.w3.org/2000/svg" viewBox="0 0 50 50"><defs><style>.cls-1{fill:#303030;}</style></defs><title>Relatório - icons</title><path class="cls-1" d="M25,0A25,25,0,1,0,50,25,25,25,0,0,0,25,0Zm0,46.45A21.45,21.45,0,1,1,46.45,25,21.45,21.45,0,0,1,25,46.45Z"/><path class="cls-1" d="M36.33,18.48l-2.06-2.06a1.46,1.46,0,0,0-2.06,0l-9.95,10L17.8,21.91a1.47,1.47,0,0,0-2.06,0L13.67,24a1.46,1.46,0,0,0,0,2.06l5.49,5.49,2.06,2.06a1.46,1.46,0,0,0,2.06,0l2.06-2.06,11-11a1.46,1.46,0,0,0,0-2.06Zm0,0"/></svg>