<svg id="Layer_1" data-name="Layer 1" xmlns="http://www.w3.org/2000/svg" viewBox="0 0 65.27 62.33"><defs><style>.cls-1{fill:#ff9406;}</style></defs><title>ícones site</title><path class="cls-1" d="M30.38,1.41a2.52,2.52,0,0,1,4.53,0L43,17.88a2.54,2.54,0,0,0,1.9,1.38L63.12,21.9a2.53,2.53,0,0,1,1.4,4.31L51.36,39a2.53,2.53,0,0,0-.73,2.23l3.1,18.11A2.52,2.52,0,0,1,50.07,62L33.82,53.49a2.48,2.48,0,0,0-2.35,0L15.2,62a2.52,2.52,0,0,1-2.66-.18,2.56,2.56,0,0,1-1-2.48l3.1-18.11A2.52,2.52,0,0,0,13.92,39L.76,26.21a2.53,2.53,0,0,1,1.4-4.31l18.17-2.64a2.53,2.53,0,0,0,1.9-1.38Z"/></svg>