<svg id="Layer_1" data-name="Layer 1" xmlns="http://www.w3.org/2000/svg" viewBox="0 0 17.17 17.16"><title>sistema</title><path d="M16.47,6.83l-1.09-.13a7,7,0,0,0-.66-1.62l.67-.85a.79.79,0,0,0-.06-1L14,1.88a.78.78,0,0,0-1-.06l-.82.65a7,7,0,0,0-1.7-.71L10.33.7A.79.79,0,0,0,9.55,0H7.69a.79.79,0,0,0-.78.7L6.79,1.76A6.9,6.9,0,0,0,5,2.5l-.86-.68a.79.79,0,0,0-1,.06L1.83,3.19a.78.78,0,0,0-.06,1l.71.91a6.76,6.76,0,0,0-.65,1.64L.7,6.91a.79.79,0,0,0-.7.78V9.55a.79.79,0,0,0,.7.78l1.21.14A7.06,7.06,0,0,0,2.53,12l-.76,1a.79.79,0,0,0,.06,1l1.31,1.31a.78.78,0,0,0,1,.06l1-.76a6.91,6.91,0,0,0,1.56.66l.14,1.23a.79.79,0,0,0,.78.7H9.47a.79.79,0,0,0,.78-.7l.14-1.18a7.06,7.06,0,0,0,1.67-.67l.92.73a.79.79,0,0,0,1-.06L15.34,14a.78.78,0,0,0,.06-1L14.68,12a6.79,6.79,0,0,0,.69-1.64l1.11-.13a.78.78,0,0,0,.7-.78V7.61A.79.79,0,0,0,16.47,6.83ZM8.62,11.58a3.07,3.07,0,1,1,3.07-3.07A3.07,3.07,0,0,1,8.62,11.58Z"/></svg>