<svg id="Layer_1" data-name="Layer 1" xmlns="http://www.w3.org/2000/svg" viewBox="0 0 58.31 68.21"><defs><style>.cls-1{fill:#ff9406;}</style></defs><title>ícones site</title><path class="cls-1" d="M5,42.17a2,2,0,1,0,3.91,0V26.88A2,2,0,0,0,5.53,25.5l-5,5a2,2,0,0,0,2.77,2.77L5,31.61V42.17Z"/><path class="cls-1" d="M16.51,8.3l1.62-1.62V17.25a2,2,0,0,0,3.91,0V2A2,2,0,0,0,18.7.57l-5,5A2,2,0,0,0,16.51,8.3Z"/><path class="cls-1" d="M38.82,25.08a2,2,0,0,0-2.13.43l-5,5a2,2,0,0,0,2.77,2.77l1.62-1.62V42.17a2,2,0,1,0,3.91,0V26.88a2,2,0,0,0-1.21-1.81Z"/><path class="cls-1" d="M30.32,49.15a2,2,0,0,0-2.14.42l-5,5A2,2,0,0,0,26,57.3l1.62-1.62v5.79a2,2,0,1,0,3.91,0V51a2,2,0,0,0-1.21-1.81Z"/><path class="cls-1" d="M27,37.41V31.65a6.73,6.73,0,0,0-6.72-6.72h-.1a6.73,6.73,0,0,0-6.72,6.72v5.76a6.73,6.73,0,0,0,6.72,6.73h.1A6.73,6.73,0,0,0,27,37.41Zm-3.91,0a2.81,2.81,0,0,1-2.81,2.81h-.1a2.81,2.81,0,0,1-2.81-2.81V31.65a2.81,2.81,0,0,1,2.81-2.81h.1a2.81,2.81,0,0,1,2.81,2.81Z"/><path class="cls-1" d="M51.58,24.93h-.1a6.73,6.73,0,0,0-6.72,6.72v5.76a6.73,6.73,0,0,0,6.72,6.73h.1a6.73,6.73,0,0,0,6.72-6.73V31.65a6.73,6.73,0,0,0-6.72-6.72Zm2.81,12.48a2.81,2.81,0,0,1-2.81,2.81h-.1a2.81,2.81,0,0,1-2.81-2.81V31.65a2.81,2.81,0,0,1,2.81-2.81h.1a2.81,2.81,0,0,1,2.81,2.81Z"/><path class="cls-1" d="M33.45,0h-.09a6.73,6.73,0,0,0-6.72,6.72v5.76a6.73,6.73,0,0,0,6.72,6.72h.09a2,2,0,1,0,0-3.91h-.09a2.81,2.81,0,0,1-2.81-2.81V6.72a2.82,2.82,0,0,1,2.81-2.81h.09a2.82,2.82,0,0,1,2.81,2.81,2,2,0,1,0,3.91,0A6.73,6.73,0,0,0,33.45,0Z"/><path class="cls-1" d="M51.58,0h-.1a6.73,6.73,0,0,0-6.72,6.72v5.76a6.73,6.73,0,0,0,6.72,6.72h.1a6.73,6.73,0,0,0,6.72-6.72V6.72A6.73,6.73,0,0,0,51.58,0Zm2.81,12.48a2.81,2.81,0,0,1-2.81,2.81h-.1a2.81,2.81,0,0,1-2.81-2.81V6.72a2.81,2.81,0,0,1,2.81-2.81h.1a2.81,2.81,0,0,1,2.81,2.81Z"/><path class="cls-1" d="M11.14,49H11a6.73,6.73,0,0,0-6.72,6.73v5.76A6.73,6.73,0,0,0,11,68.21h.1a6.73,6.73,0,0,0,6.72-6.72V55.73A6.73,6.73,0,0,0,11.14,49Zm2.81,12.48a2.81,2.81,0,0,1-2.81,2.81H11a2.81,2.81,0,0,1-2.81-2.81V55.73A2.81,2.81,0,0,1,11,52.92h.1a2.81,2.81,0,0,1,2.81,2.81Z"/></svg>