<svg id="Layer_1" data-name="Layer 1" xmlns="http://www.w3.org/2000/svg" viewBox="0 0 69.98 50"><defs><style>.cls-1{fill:#303030;}</style></defs><title>Relatório - icons</title><path class="cls-1" d="M46.51,19.36l-3.44-.58a19.47,19.47,0,0,0-1.38-3.34l2-2.84a3,3,0,0,0-.33-3.9L40.33,5.65a3,3,0,0,0-2.14-.89,3,3,0,0,0-1.75.56l-2.85,2a19.23,19.23,0,0,0-3.46-1.42l-.57-3.4a3,3,0,0,0-3-2.53H22.26a3,3,0,0,0-3,2.53L18.68,6a19,19,0,0,0-3.33,1.4l-2.82-2a3,3,0,0,0-3.9.33L5.57,8.77a3,3,0,0,0-.33,3.9l2,2.88a18.87,18.87,0,0,0-1.36,3.35l-3.4.57a3,3,0,0,0-2.53,3v4.31a3,3,0,0,0,2.53,3L6,30.35a19,19,0,0,0,1.4,3.33l-2,2.8a3,3,0,0,0,.33,3.9l3.05,3.05a3,3,0,0,0,2.14.89,3,3,0,0,0,1.75-.56l2.88-2A19.41,19.41,0,0,0,18.78,43l.57,3.44a3,3,0,0,0,3,2.53h4.32a3,3,0,0,0,3-2.53L30.24,43a19.43,19.43,0,0,0,3.34-1.38l2.84,2a3,3,0,0,0,3.9-.33l3.05-3.05a3,3,0,0,0,.33-3.9l-2-2.85A19.23,19.23,0,0,0,43,30.23l3.44-.57a3,3,0,0,0,2.53-3V22.35A3,3,0,0,0,46.51,19.36Zm-22,15.72A10.58,10.58,0,1,1,35.09,24.5,10.58,10.58,0,0,1,24.51,35.08Z"/><path class="cls-1" d="M69.26,40.91,67.92,40a8.93,8.93,0,0,0,0-1.66l1.37-.83a1.39,1.39,0,0,0,.57-1.7L69.15,34a1.38,1.38,0,0,0-.74-.76,1.37,1.37,0,0,0-.84-.08L66,33.5a8.82,8.82,0,0,0-1.2-1.23l.38-1.54a1.39,1.39,0,0,0-.8-1.61l-1.82-.78a1.39,1.39,0,0,0-1.72.52L60,30.23a8.7,8.7,0,0,0-1.66,0l-.82-1.37a1.39,1.39,0,0,0-1.7-.57L53.93,29a1.39,1.39,0,0,0-.85,1.58l.34,1.58a8.66,8.66,0,0,0-1.18,1.16L50.71,33a1.39,1.39,0,0,0-1.61.8l-.78,1.82a1.39,1.39,0,0,0,.52,1.72l1.36.88a8.7,8.7,0,0,0,0,1.66l-1.36.82a1.39,1.39,0,0,0-.57,1.7L49,44.21a1.38,1.38,0,0,0,.74.76,1.37,1.37,0,0,0,.84.08l1.58-.34a8.91,8.91,0,0,0,1.12,1.15l-.38,1.55A1.39,1.39,0,0,0,53.7,49l1.82.78a1.39,1.39,0,0,0,1.72-.52l.87-1.34a8.92,8.92,0,0,0,1.66,0l.83,1.37a1.39,1.39,0,0,0,1.7.57l1.84-.73A1.39,1.39,0,0,0,65,47.58L64.64,46a8.82,8.82,0,0,0,1.19-1.16l1.55.38a1.39,1.39,0,0,0,1.61-.8l.78-1.82A1.37,1.37,0,0,0,69.26,40.91ZM57.14,43.54A4.85,4.85,0,1,1,63.52,41,4.86,4.86,0,0,1,57.14,43.54Z"/></svg>