<svg id="Layer_1" data-name="Layer 1" xmlns="http://www.w3.org/2000/svg" viewBox="0 0 35 68.01"><defs><style>.cls-1{fill:#ff9406;}</style></defs><title>ícones site</title><path class="cls-1" d="M21.29,64.58c0,.46,0,.92,0,1.38a1.82,1.82,0,0,1-2,2c-1.28-.09-2.9-.09-4.43-.16h0a1.88,1.88,0,0,1-2.05-2.14V62.46c0-2.39-.08-2.48-2.38-2.82A29.72,29.72,0,0,1,2,57.26c-2-1-2.3-1.53-1.71-3.75.43-1.62.86-3.24,1.36-4.86.6-1.88,1.11-2.14,2.81-1.19a27.28,27.28,0,0,0,9.3,2.81,11.54,11.54,0,0,0,6.15-.77c3.67-1.62,4.18-5.8,1.11-8.36a12.82,12.82,0,0,0-3.5-2c-3.15-1.37-6.57-2.48-9.56-4.27-4.87-2.9-8-7-7.68-12.88C.71,15.19,4.46,11,10.69,8.7c2.56-.94,2.56-.85,2.56-3.58V2.39C13.33.34,13.67,0,15.64,0h1.87c4.27,0,4.27,0,4.27,4.26,0,3,0,3,3,3.5a25.79,25.79,0,0,1,6.67,2,1.93,1.93,0,0,1,1.27,2.55c-.51,1.88-1,3.68-1.62,5.55-.59,1.71-1.11,2-2.73,1.2a20.25,20.25,0,0,0-10.49-2,8.18,8.18,0,0,0-2.82.59,4,4,0,0,0-1,7.08,18.18,18.18,0,0,0,4.53,2.56c2.81,1.19,5.63,2.3,8.27,3.75,8.53,4.7,10.84,15.36,4.78,22.7A15.35,15.35,0,0,1,23.32,59a2.38,2.38,0,0,0-2,2.64Z"/></svg>