<svg id="Layer_1" data-name="Layer 1" xmlns="http://www.w3.org/2000/svg" viewBox="0 0 50.01 50"><defs><style>.cls-1{fill:#303030;}</style></defs><title>Relatório - icons</title><path class="cls-1" d="M48.1,19.45a4.79,4.79,0,0,0-6.62,0L32,28.94a4.68,4.68,0,0,0,0,6.62,6.27,6.27,0,0,0,8.86,0l7.24-7.24a6.27,6.27,0,0,0,0-8.86Z"/><path class="cls-1" d="M30.42,1.78a6.42,6.42,0,0,0-8.86,0L14.32,9a6.27,6.27,0,0,0,0,8.86,4.68,4.68,0,0,0,6.62,0L30.42,8.4a4.68,4.68,0,0,0,0-6.62Z"/><path class="cls-1" d="M32.94,8.48a6.72,6.72,0,0,1-1,1.4l-9.48,9.48a6.81,6.81,0,0,1-1.4,1l1.33,1.33L2,38.67A5.64,5.64,0,0,0,1.65,47l1.24,1.24a5.64,5.64,0,0,0,8.32-.38L28.15,27.53l1.33,1.33a6.7,6.7,0,0,1,1-1.4L40,18a6.22,6.22,0,0,1,1.41-1Z"/><path class="cls-1" d="M44.79,43.73H32.51A5.23,5.23,0,0,0,27.29,49a1,1,0,0,0,1,1H49a1,1,0,0,0,1-1,5.23,5.23,0,0,0-5.22-5.22Z"/></svg>