<svg id="Layer_1" data-name="Layer 1" xmlns="http://www.w3.org/2000/svg" viewBox="0 0 50.15 50"><defs><style>.cls-1{fill:#303030;}</style></defs><title>Relatório - icons</title><path class="cls-1" d="M40.06,30c-1,0-1.75.25-2.5.25L30.32,23l6-6,7.74-2.75L49.8,5a1.57,1.57,0,0,0,0-1.5l-3-3A1.54,1.54,0,0,0,45.05.28L35.57,5.77l-3,8h0l-6,6-6.74-7.24c0-.75.25-1.5.25-2.5A10.14,10.14,0,0,0,7.6.28L11.34,4a4.83,4.83,0,0,1,0,7,4.83,4.83,0,0,1-7,0l-4-3.5a9.8,9.8,0,0,0,12.24,12l7.24,7.24-3,3A4.76,4.76,0,0,0,12.09,31L1.85,41.23a5.08,5.08,0,0,0-.5,7,4.92,4.92,0,0,0,7.24.25L19.08,38a4.9,4.9,0,0,0,1.25-4.74l3-3,7.24,7.24a8.5,8.5,0,0,0-.25,2.5,10.14,10.14,0,0,0,12.49,9.74L39.06,46a4.94,4.94,0,1,1,7-7l3.75,3.75A10.13,10.13,0,0,0,40.06,30Z"/></svg>