<svg id="Layer_1" data-name="Layer 1" xmlns="http://www.w3.org/2000/svg" viewBox="0 0 40.62 50"><defs><style>.cls-1{fill:#303030;}</style></defs><title>Relatório - icons</title><path class="cls-1" d="M40.62,34.61V39.3a4.69,4.69,0,0,1-3.34,4.49V10.7a7.37,7.37,0,0,0-7.36-7.36H6.21A4.69,4.69,0,0,1,10.7,0H35.93a4.69,4.69,0,0,1,4.69,4.69Z"/><path class="cls-1" d="M29.91,6H4.69A4.69,4.69,0,0,0,0,10.7V45.31A4.69,4.69,0,0,0,4.69,50H29.92a4.69,4.69,0,0,0,4.69-4.69V10.7A4.69,4.69,0,0,0,29.91,6Zm-7,29.85A6.12,6.12,0,0,1,19.62,38,1,1,0,0,0,18.81,39c0,.58,0,1.16,0,1.74a.73.73,0,0,1-.78.82c-.51,0-1.16,0-1.77-.07a.75.75,0,0,1-.82-.85V39.37c0-1,0-1-1-1.12a11.84,11.84,0,0,1-3.38-1c-.81-.41-.92-.61-.68-1.5.17-.65.34-1.29.54-1.94s.44-.85,1.12-.48a10.88,10.88,0,0,0,3.71,1.12,4.62,4.62,0,0,0,2.45-.31,1.9,1.9,0,0,0,.44-3.34,5.1,5.1,0,0,0-1.4-.82,32.28,32.28,0,0,1-3.82-1.7c-1.94-1.16-3.2-2.79-3.07-5.14a5.71,5.71,0,0,1,4.16-5.28c1-.37,1-.34,1-1.43V15.38c0-.82.17-1,1-1h.75c1.7,0,1.7,0,1.7,1.7,0,1.2,0,1.2,1.19,1.4a10.25,10.25,0,0,1,2.66.78.77.77,0,0,1,.51,1c-.2.75-.41,1.47-.65,2.22s-.44.79-1.09.48a8.1,8.1,0,0,0-4.19-.82,3.27,3.27,0,0,0-1.13.24,1.6,1.6,0,0,0-.41,2.83,7.23,7.23,0,0,0,1.81,1c1.12.48,2.25.92,3.3,1.5A5.94,5.94,0,0,1,22.93,35.86Z"/></svg>