<svg id="Layer_1" data-name="Layer 1" xmlns="http://www.w3.org/2000/svg" viewBox="0 0 13.08 17.17"><title>sistema</title><path d="M5.31,0A.55.55,0,0,0,5,.56v2A5.9,5.9,0,0,0,0,8.41v.83a1.16,1.16,0,1,0,2.31,0V8.41A3.59,3.59,0,0,1,5,4.95V6.77a.56.56,0,0,0,.95.39L9,4.06a.56.56,0,0,0,0-.79L5.92.16A.56.56,0,0,0,5.31,0Zm0,0"/><path d="M10.77,7.93v.83a3.58,3.58,0,0,1-2.66,3.46V10.4A.56.56,0,0,0,7.16,10L4.06,13.11a.55.55,0,0,0,0,.79L7.16,17a.56.56,0,0,0,.95-.39v-2a5.89,5.89,0,0,0,5-5.82V7.93a1.16,1.16,0,1,0-2.31,0Zm0,0"/></svg>