<svg id="Layer_1" data-name="Layer 1" xmlns="http://www.w3.org/2000/svg" viewBox="0 0 60 69.24"><defs><style>.cls-1{fill:#ff9406;}</style></defs><title>ícones site</title><path class="cls-1" d="M30,19.74a6,6,0,0,0-4.33,1.77,5.88,5.88,0,0,0-1.83,4.27v4.15H36V25.79a6,6,0,0,0-6-6Z"/><path class="cls-1" d="M59.92,11a1.92,1.92,0,0,0-.59-1.65,1,1,0,0,0-1.13-.47c-1.43.07-2.9.14-4.4.15a27.36,27.36,0,0,1-6.34-.79C39.62,5.93,32.65,0,30,0h0c-2.65,0-9.61,5.93-17.45,8.19a27.63,27.63,0,0,1-6.34.9c-1.5,0-3-.13-4.4-.2a1,1,0,0,0-1.14.45A1.89,1.89,0,0,0,.09,11C.09,11.22,0,30.64,0,30.8s0,.58,0,.88c0,.1,0,.2,0,.3s0,.38,0,.57,0,.25,0,.37,0,.34,0,.51,0,.26,0,.4l.06.48.06.41c0,.15,0,.31.08.46s.05.28.08.42L.57,36l.09.41c0,.16.07.31.11.46l.1.39.06.25,0,.09C4.7,51.42,18.54,63.48,26.19,67.21c1.4.71,2.58,1.53,3.5,1.6.11,0,.21.44.31.44h0c.1,0,.2-.42.31-.44a11.12,11.12,0,0,0,3.5-1.39C41.46,63.69,55.31,51.53,59,37.75c0,0,0-.11,0-.14s0-.2.06-.28.07-.27.1-.4.07-.32.11-.47l.09-.41.09-.45.08-.42.08-.46.06-.41.06-.48,0-.4c0-.17,0-.34,0-.51s0-.25,0-.37,0-.38,0-.57,0-.2,0-.31c0-.29,0-.59,0-.88S59.92,11.2,59.92,11ZM43.49,46.2a2.36,2.36,0,0,1-.6,1.7,2.15,2.15,0,0,1-1.55.76H18.66A2.32,2.32,0,0,1,17,47.9a2.43,2.43,0,0,1-.68-1.7V32.6A2.67,2.67,0,0,1,17,30.8a2.44,2.44,0,0,1,1.63-.85h.5V25.79a10.31,10.31,0,0,1,3.24-7.46,10.67,10.67,0,0,1,15.08,0,10.26,10.26,0,0,1,3.2,7.46v4.15h.66a2.26,2.26,0,0,1,1.55.85,2.6,2.6,0,0,1,.6,1.8V46.2Z"/><path class="cls-1" d="M30,35.88a2.77,2.77,0,0,0-2.78,2.71,2.43,2.43,0,0,0,1.3,2.35v3h2.81v-3a2.49,2.49,0,0,0,1.37-2.35A2.7,2.7,0,0,0,30,35.88Z"/></svg>