<svg id="Layer_1" data-name="Layer 1" xmlns="http://www.w3.org/2000/svg" viewBox="0 0 70.64 50"><defs><style>.cls-1{fill:#ff9406;}</style></defs><title>ícones site</title><path class="cls-1" d="M70.24,15.47a1.82,1.82,0,0,0-1.4-.67H62c-1.7-4.47-3.9-8.86-6.41-10.51-8.69-5.72-31.75-5.72-40.44,0-2.51,1.65-4.72,6-6.42,10.51H1.81A1.81,1.81,0,0,0,0,17l1,4.93a1.8,1.8,0,0,0,1.77,1.44h2a12.18,12.18,0,0,0-2.93,8,11.93,11.93,0,0,0,3.78,9l.08.06v6.91A2.71,2.71,0,0,0,8.5,50h6.34a2.72,2.72,0,0,0,2.71-2.71V44.52H53.09v2.77A2.71,2.71,0,0,0,55.8,50h6.34a2.72,2.72,0,0,0,2.71-2.71V40.51a12.4,12.4,0,0,0,.78-17.16h2.18a1.81,1.81,0,0,0,1.77-1.44l1-4.93a1.84,1.84,0,0,0-.36-1.51ZM18.09,8.82c6.92-4.55,27.55-4.55,34.46,0,1.35.89,3.08,4.45,4.66,8.82H13.43c1.58-4.37,3.31-7.94,4.66-8.82ZM10,32a5.34,5.34,0,1,1,5.33,5.34A5.34,5.34,0,0,1,10,32ZM55.4,37.36A5.34,5.34,0,1,1,60.75,32a5.35,5.35,0,0,1-5.34,5.34Z"/></svg>