<svg id="Layer_1" data-name="Layer 1" xmlns="http://www.w3.org/2000/svg" viewBox="0 0 71.47 50"><defs><style>.cls-1{fill:#303030;}</style></defs><title>Relatório - icons</title><path class="cls-1" d="M20.46,17.25a.87.87,0,0,0-.21-.63L13.38,8.8a.87.87,0,0,0-1.22-.08,35.74,35.74,0,0,0-7.79,9.73.87.87,0,0,0,.34,1.18l9.13,5A.87.87,0,0,0,15,24.28a23.63,23.63,0,0,1,5.15-6.43.86.86,0,0,0,.29-.6Zm0,0"/><path class="cls-1" d="M23.53,14.35a.87.87,0,0,0,.77.46.86.86,0,0,0,.41-.1,23.36,23.36,0,0,1,7.83-2.52.87.87,0,0,0,.74-1L31.87.91a.87.87,0,0,0-1-.74A35.45,35.45,0,0,0,19,4a.87.87,0,0,0-.36,1.17Zm0,0"/><path class="cls-1" d="M12.35,28.31l-10-2.73a.87.87,0,0,0-1.06.61A35.83,35.83,0,0,0,0,35.57c0,.54,0,1.09,0,1.67a.87.87,0,0,0,.87.83h0l10.4-.48a.87.87,0,0,0,.83-.91c0-.39,0-.75,0-1.11a23.68,23.68,0,0,1,.82-6.2.87.87,0,0,0-.61-1.06Zm0,0"/><path class="cls-1" d="M51.24,3.37A35.47,35.47,0,0,0,39.22,0a.87.87,0,0,0-.95.78l-1,10.36a.87.87,0,0,0,.78.95A23.35,23.35,0,0,1,46,14.3a.87.87,0,0,0,1.16-.4l4.52-9.38a.87.87,0,0,0-.4-1.16Zm0,0"/><path class="cls-1" d="M66.52,17.92a.87.87,0,0,0-.1-.66,35.77,35.77,0,0,0-8.16-9.42A.87.87,0,0,0,57,8L50.48,16a.87.87,0,0,0,.13,1.22A23.65,23.65,0,0,1,56,23.49a.87.87,0,0,0,1.19.3l8.93-5.34a.87.87,0,0,0,.4-.53Zm0,0"/><path class="cls-1" d="M69.84,24.88a.87.87,0,0,0-1.09-.57l-9.93,3.11a.87.87,0,0,0-.57,1.09,23.61,23.61,0,0,1,1.07,7.06c0,.35,0,.72,0,1.11a.87.87,0,0,0,.83.91l10.4.48h0a.87.87,0,0,0,.87-.83c0-.58,0-1.12,0-1.67a35.72,35.72,0,0,0-1.63-10.7Zm0,0"/><path class="cls-1" d="M37.64,37.61H37.3L25.14,29.85a.68.68,0,0,0-.95.91l7.29,12.41a6.4,6.4,0,0,0,0,.64,6.2,6.2,0,1,0,6.2-6.2Zm0,0"/></svg>