<svg id="Layer_1" data-name="Layer 1" xmlns="http://www.w3.org/2000/svg" viewBox="0 0 58.26 55.54"><defs><style>.cls-1{fill:#ff9406;}</style></defs><title>vist</title><path class="cls-1" d="M58.14,42.48a10.22,10.22,0,0,0-2.58-4.26,10.14,10.14,0,0,0-11.21-2.16L20.2,11.92A10.18,10.18,0,0,0,4.52,1.71a1.11,1.11,0,0,0-.3,1.54,1.06,1.06,0,0,0,.38.35L9.65,6.42c1.12.63,1.34,2.52.44,4.13S7.46,13,6.34,12.35L1.65,9.81a1.11,1.11,0,0,0-1.51.44,1.19,1.19,0,0,0-.14.61,10.18,10.18,0,0,0,10.8,9.52,10.07,10.07,0,0,0,3.37-.8L38.31,43.67a10.19,10.19,0,0,0,17.32,8.82,1.12,1.12,0,0,0-.09-1.58,1.27,1.27,0,0,0-.41-.23L48.86,49a2.06,2.06,0,0,1-1.31-1.28,4.15,4.15,0,0,1-.11-2.63c.47-1.74,2-3,3.19-2.66l6.2,1.67a.76.76,0,0,0,.3,0A1.11,1.11,0,0,0,58.26,43,1.17,1.17,0,0,0,58.14,42.48Z"/></svg>