<svg id="Layer_1" data-name="Layer 1" xmlns="http://www.w3.org/2000/svg" viewBox="0 0 50.92 50"><defs><style>.cls-1{fill:#303030;}</style></defs><title>Relatório - icons</title><path class="cls-1" d="M43.42,0H7.5A7.5,7.5,0,0,0,0,7.5v35A7.5,7.5,0,0,0,7.5,50H43.42a7.5,7.5,0,0,0,7.5-7.5V7.5A7.5,7.5,0,0,0,43.42,0Zm1.94,38.68a5.86,5.86,0,0,1-5.86,5.86H11.42a5.86,5.86,0,0,1-5.86-5.86V11.32a5.86,5.86,0,0,1,5.86-5.86H39.49a5.86,5.86,0,0,1,5.86,5.86Z"/><path class="cls-1" d="M32.25,25.76l0,0L31.53,25l6.94-6.94a2.14,2.14,0,0,0,0-3l-3-3a2.15,2.15,0,0,0-3,0l-6.19,6.2,0,0-.74.74L18.52,12a2.15,2.15,0,0,0-3,0l-3,3a2.15,2.15,0,0,0,0,3l6.2,6.19,0,0,.74.74-6.94,6.94a2.15,2.15,0,0,0,0,3l3,3a2.15,2.15,0,0,0,3,0l6.19-6.2,0,0,.74-.74L32.4,38a2.14,2.14,0,0,0,3,0l3-3a2.15,2.15,0,0,0,0-3Z"/></svg>